<svg width="729" height="449" viewBox="0 0 729 449" fill="none" xmlns="http://www.w3.org/2000/svg">
<path d="M471.872 318.569H528.87V451.868H471.872V318.569Z" fill="#333333"/>
<path d="M502.962 311.844H528.87V319.431H502.962V311.844Z" fill="#333333"/>
<path d="M513.843 307.532H528.87V311.844H513.843V307.532Z" fill="#333333"/>
<path opacity="0.06" d="M495.707 327.881H505.034V334.779H495.707V327.881Z" fill="white"/>
<path opacity="0.12" d="M495.707 344.953H505.034V351.851H495.707V344.953Z" fill="white"/>
<path opacity="0.19" d="M495.707 379.097H505.034V385.995H495.707V379.097Z" fill="white"/>
<path opacity="0.14" d="M495.707 413.241H505.034V420.139H495.707V413.241Z" fill="white"/>
<path opacity="0.1" d="M495.707 430.313H505.034V437.211H495.707V430.313Z" fill="white"/>
<path d="M614.884 333.054H692.954V404.445H614.884V333.054Z" fill="#333333"/>
<path d="M627.147 326.673H680.518V357.368H627.147V326.673Z" fill="#333333"/>
<path d="M609.185 378.061H687.254V449.453H609.185V378.061Z" fill="#333333"/>
<path d="M621.62 371.681H674.991V402.376H621.62V371.681Z" fill="#333333"/>
<path d="M505.207 368.577H583.276V450.833H505.207V368.577Z" fill="#333333"/>
<path d="M517.47 361.334H570.841V396.858H517.47V361.334Z" fill="#333333"/>
<path d="M243.881 393.582H321.951V473.079H243.881V393.582Z" fill="#333333"/>
<path d="M256.144 386.512H309.515V420.828H256.144V386.512Z" fill="#333333"/>
<path d="M413.147 229.415H500.371V450.661H413.147V229.415Z" fill="#333333"/>
<path opacity="0.46" d="M474.981 239.417H496.053V243.383H474.981V239.417Z" fill="#E6E6E6"/>
<path opacity="0.34" d="M446.136 239.417H467.208V243.383H446.136V239.417Z" fill="#E6E6E6"/>
<path opacity="0.52" d="M417.465 239.417H438.537V243.383H417.465V239.417Z" fill="#E6E6E6"/>
<path opacity="0.54" d="M474.981 248.556H496.053V252.523H474.981V248.556Z" fill="#E6E6E6"/>
<path opacity="0.3" d="M446.136 248.556H467.208V252.523H446.136V248.556Z" fill="#E6E6E6"/>
<path opacity="0.06" d="M417.465 248.556H438.537V252.523H417.465V248.556Z" fill="#E6E6E6"/>
<path opacity="0.15" d="M474.981 257.696H496.053V261.662H474.981V257.696Z" fill="#E6E6E6"/>
<path opacity="0.42" d="M446.136 257.696H467.208V261.662H446.136V257.696Z" fill="#E6E6E6"/>
<path opacity="0.48" d="M417.465 257.696H438.537V261.662H417.465V257.696Z" fill="#E6E6E6"/>
<path opacity="0.18" d="M474.981 266.835H496.053V270.802H474.981V266.835Z" fill="#E6E6E6"/>
<path opacity="0.28" d="M417.465 266.835H438.537V270.802H417.465V266.835Z" fill="#E6E6E6"/>
<path opacity="0.29" d="M474.981 275.975H496.053V279.941H474.981V275.975Z" fill="#E6E6E6"/>
<path opacity="0.28" d="M446.136 275.975H467.208V279.941H446.136V275.975Z" fill="#E6E6E6"/>
<path opacity="0.56" d="M417.465 275.975H438.537V279.941H417.465V275.975Z" fill="#E6E6E6"/>
<path opacity="0.41" d="M474.981 285.115H496.053V289.081H474.981V285.115Z" fill="#E6E6E6"/>
<path opacity="0.16" d="M446.136 285.115H467.208V289.081H446.136V285.115Z" fill="#E6E6E6"/>
<path opacity="0.4" d="M417.465 285.115H438.537V289.081H417.465V285.115Z" fill="#E6E6E6"/>
<path opacity="0.1" d="M474.981 294.254H496.053V298.221H474.981V294.254Z" fill="#E6E6E6"/>
<path opacity="0.17" d="M446.136 294.254H467.208V298.221H446.136V294.254Z" fill="#E6E6E6"/>
<path opacity="0.08" d="M417.465 294.254H438.537V298.221H417.465V294.254Z" fill="#E6E6E6"/>
<path opacity="0.49" d="M474.981 303.394H496.053V307.36H474.981V303.394Z" fill="#E6E6E6"/>
<path opacity="0.58" d="M446.136 303.394H467.208V307.36H446.136V303.394Z" fill="#E6E6E6"/>
<path opacity="0.58" d="M417.465 303.394H438.537V307.36H417.465V303.394Z" fill="#E6E6E6"/>
<path opacity="0.26" d="M474.981 312.533H496.053V316.5H474.981V312.533Z" fill="#E6E6E6"/>
<path opacity="0.37" d="M446.136 312.533H467.208V316.5H446.136V312.533Z" fill="#E6E6E6"/>
<path opacity="0.34" d="M417.465 312.533H438.537V316.5H417.465V312.533Z" fill="#E6E6E6"/>
<path opacity="0.55" d="M474.981 321.673H496.053V325.639H474.981V321.673Z" fill="#E6E6E6"/>
<path opacity="0.12" d="M446.136 321.673H467.208V325.639H446.136V321.673Z" fill="#E6E6E6"/>
<path opacity="0.6" d="M417.465 321.673H438.537V325.639H417.465V321.673Z" fill="#E6E6E6"/>
<path opacity="0.02" d="M474.981 330.812H496.053V334.779H474.981V330.812Z" fill="#E6E6E6"/>
<path opacity="0.28" d="M446.136 330.812H467.208V334.779H446.136V330.812Z" fill="#E6E6E6"/>
<path opacity="0.21" d="M417.465 330.812H438.537V334.779H417.465V330.812Z" fill="#E6E6E6"/>
<path opacity="0.57" d="M474.981 339.952H496.053V343.918H474.981V339.952Z" fill="#E6E6E6"/>
<path opacity="0.38" d="M446.136 339.952H467.208V343.918H446.136V339.952Z" fill="#E6E6E6"/>
<path opacity="0.25" d="M417.465 339.952H438.537V343.918H417.465V339.952Z" fill="#E6E6E6"/>
<path opacity="0.15" d="M474.981 349.091H496.053V353.058H474.981V349.091Z" fill="#E6E6E6"/>
<path opacity="0.47" d="M446.136 349.091H467.208V353.058H446.136V349.091Z" fill="#E6E6E6"/>
<path opacity="0.3" d="M417.465 349.091H438.537V353.058H417.465V349.091Z" fill="#E6E6E6"/>
<path opacity="0.4" d="M474.981 358.231H496.053V362.197H474.981V358.231Z" fill="#E6E6E6"/>
<path opacity="0.39" d="M446.136 358.231H467.208V362.197H446.136V358.231Z" fill="#E6E6E6"/>
<path opacity="0.24" d="M417.465 358.231H438.537V362.197H417.465V358.231Z" fill="#E6E6E6"/>
<path opacity="0.46" d="M474.981 367.37H496.053V371.337H474.981V367.37Z" fill="#E6E6E6"/>
<path opacity="0.22" d="M446.136 367.37H467.208V371.337H446.136V367.37Z" fill="#E6E6E6"/>
<path opacity="0.11" d="M417.465 367.37H438.537V371.337H417.465V367.37Z" fill="#E6E6E6"/>
<path opacity="0.11" d="M446.136 376.51H467.208V380.476H446.136V376.51Z" fill="#E6E6E6"/>
<path opacity="0.02" d="M417.465 376.51H438.537V380.476H417.465V376.51Z" fill="#E6E6E6"/>
<path opacity="0.27" d="M474.981 385.65H496.053V389.616H474.981V385.65Z" fill="#E6E6E6"/>
<path opacity="0.21" d="M446.136 385.65H467.208V389.616H446.136V385.65Z" fill="#E6E6E6"/>
<path opacity="0.49" d="M417.465 385.65H438.537V389.616H417.465V385.65Z" fill="#E6E6E6"/>
<path opacity="0.6" d="M474.981 394.789H496.053V398.756H474.981V394.789Z" fill="#E6E6E6"/>
<path opacity="0.31" d="M446.136 394.789H467.208V398.756H446.136V394.789Z" fill="#E6E6E6"/>
<path opacity="0.22" d="M417.465 394.789H438.537V398.756H417.465V394.789Z" fill="#E6E6E6"/>
<path opacity="0.54" d="M474.981 403.929H496.053V407.895H474.981V403.929Z" fill="#E6E6E6"/>
<path opacity="0.6" d="M446.136 403.929H467.208V407.895H446.136V403.929Z" fill="#E6E6E6"/>
<path opacity="0.08" d="M417.465 403.929H438.537V407.895H417.465V403.929Z" fill="#E6E6E6"/>
<path opacity="0.55" d="M446.136 413.068H467.208V417.035H446.136V413.068Z" fill="#E6E6E6"/>
<path d="M417.465 413.068H438.537V417.035H417.465V413.068Z" fill="#E6E6E6"/>
<path opacity="0.6" d="M473.599 239.417H474.981V417.035H473.599V239.417Z" fill="#E6E6E6"/>
<path opacity="0.6" d="M438.537 239.417H439.919V417.035H438.537V239.417Z" fill="#E6E6E6"/>
<path d="M369.621 229.415H413.147V450.661H369.621V229.415Z" fill="#4D4D4D"/>
<path opacity="0.69" d="M376.012 239.417H408.829V243.383H376.012V239.417Z" fill="#E6E6E6"/>
<path opacity="0.79" d="M376.012 248.556H408.829V252.523H376.012V248.556Z" fill="#E6E6E6"/>
<path opacity="0.19" d="M376.012 257.696H408.829V261.662H376.012V257.696Z" fill="#E6E6E6"/>
<path opacity="0.88" d="M376.012 266.835H408.829V270.802H376.012V266.835Z" fill="#E6E6E6"/>
<path opacity="0.5" d="M376.012 275.975H408.829V279.941H376.012V275.975Z" fill="#E6E6E6"/>
<path opacity="0.25" d="M376.012 285.115H408.829V289.081H376.012V285.115Z" fill="#E6E6E6"/>
<path opacity="0.91" d="M376.012 294.254H408.829V298.221H376.012V294.254Z" fill="#E6E6E6"/>
<path opacity="0.02" d="M376.012 303.394H408.829V307.36H376.012V303.394Z" fill="#E6E6E6"/>
<path opacity="0.53" d="M376.012 312.533H408.829V316.5H376.012V312.533Z" fill="#E6E6E6"/>
<path opacity="0.65" d="M376.012 321.673H408.829V325.639H376.012V321.673Z" fill="#E6E6E6"/>
<path d="M376.012 330.812H408.829V334.779H376.012V330.812Z" fill="#E6E6E6"/>
<path opacity="0.8" d="M376.012 339.952H408.829V343.918H376.012V339.952Z" fill="#E6E6E6"/>
<path opacity="0.82" d="M376.012 349.091H408.829V353.058H376.012V349.091Z" fill="#E6E6E6"/>
<path opacity="0.75" d="M376.012 358.231H408.829V362.197H376.012V358.231Z" fill="#E6E6E6"/>
<path opacity="0.31" d="M376.012 367.37H408.829V371.337H376.012V367.37Z" fill="#E6E6E6"/>
<path opacity="0.22" d="M376.012 376.51H408.829V380.476H376.012V376.51Z" fill="#E6E6E6"/>
<path opacity="0.43" d="M376.012 385.65H408.829V389.616H376.012V385.65Z" fill="#E6E6E6"/>
<path opacity="0.68" d="M376.012 394.789H408.829V398.756H376.012V394.789Z" fill="#E6E6E6"/>
<path opacity="0.38" d="M376.012 403.929H408.829V407.895H376.012V403.929Z" fill="#E6E6E6"/>
<path opacity="0.84" d="M376.012 413.068H408.829V417.035H376.012V413.068Z" fill="#E6E6E6"/>
<path d="M484.999 217.689V229.415H428.519V217.689H484.999ZM472.39 225.621H478.262V221.655H472.39V225.621ZM463.236 225.621H468.936V221.655H463.236V225.621ZM453.909 225.621H459.609V221.655H453.909V225.621ZM444.582 225.621H450.454V221.655H444.582V225.621ZM435.255 225.621H441.128V221.655H435.255V225.621Z" fill="#333333"/>
<path d="M418.156 221.655H419.71V225.621H418.156V221.655Z" fill="#333333"/>
<path d="M428.519 217.689V229.415H401.92V217.689H428.519ZM418.156 225.621H423.856V221.655H418.156V225.621ZM405.893 225.621H411.592V221.655H405.893V225.621Z" fill="#4D4D4D"/>
<path d="M406.065 221.655H407.62V225.621H406.065V221.655Z" fill="#333333"/>
<path d="M401.575 465.663H519.024L401.575 379.096V465.663Z" fill="#333333"/>
<path d="M576.713 182.51H586.213V218.551H576.713V182.51Z" fill="#4D4D4D"/>
<path d="M586.04 182.51H595.712V218.551H586.04V182.51Z" fill="#333333"/>
<path d="M566.868 182.51H576.54V218.551H566.868V182.51Z" fill="#666666"/>
<path d="M538.887 243.21H565.832V448.764H538.887V243.21Z" fill="#666666"/>
<path d="M597.439 243.21H620.929V448.764H597.439V243.21Z" fill="#333333"/>
<path d="M565.832 243.21H597.612V448.764H565.832V243.21Z" fill="#4D4D4D"/>
<path opacity="0.6" d="M614.193 249.246H617.648V446.005H614.193V249.246Z" fill="#E6E6E6"/>
<path opacity="0.6" d="M607.457 249.246H610.912V446.005H607.457V249.246Z" fill="#E6E6E6"/>
<path opacity="0.6" d="M600.721 249.246H604.175V446.005H600.721V249.246Z" fill="#E6E6E6"/>
<path d="M560.477 249.246H563.932V446.005H560.477V249.246Z" fill="#E6E6E6"/>
<path d="M553.741 249.246H557.196V446.005H553.741V249.246Z" fill="#E6E6E6"/>
<path d="M540.615 249.246H544.069V446.005H540.615V249.246Z" fill="#E6E6E6"/>
<path d="M547.005 249.246H550.46V446.005H547.005V249.246Z" fill="#E6E6E6"/>
<path opacity="0.8" d="M593.64 446.005H569.804V249.246H593.64V446.005ZM589.84 252.695H573.604V442.556H589.84V252.695Z" fill="#E6E6E6"/>
<path opacity="0.8" d="M586.731 439.28H576.54V255.799H586.731V439.28ZM583.276 260.11H582.067H581.376H579.995V434.969H581.376H582.067H583.276V260.11Z" fill="#E6E6E6"/>
<path opacity="0.8" d="M581.376 260.11H582.067V434.969H581.376V260.11Z" fill="#E6E6E6"/>
<path d="M569.459 207.17H593.294V243.211H569.459V207.17Z" fill="#4D4D4D"/>
<path d="M569.459 207.17H593.294V243.211H569.459V207.17Z" fill="#4D4D4D"/>
<path d="M545.623 207.17H569.459V243.211H545.623V207.17Z" fill="#666666"/>
<path d="M593.294 207.17H617.13V243.211H593.294V207.17Z" fill="#333333"/>
<path d="M567.041 182.51H595.712L586.213 189.063H576.54L567.041 182.51Z" fill="#808080"/>
<path d="M54.5796 169.232H68.3971V209.756H54.5796V169.232Z" fill="#4D4D4D"/>
<path d="M68.5701 169.232H82.3877V209.756H68.5701V169.232Z" fill="#333333"/>
<path d="M40.7618 169.232H54.5796V209.756H40.7618V169.232Z" fill="#666666"/>
<path d="M0 237.692H39.0347V469.285H0V237.692Z" fill="#666666"/>
<path d="M84.9785 237.692H118.832V469.285H84.9785V237.692Z" fill="#333333"/>
<path d="M39.0348 237.692H84.9784V469.285H39.0348V237.692Z" fill="#4D4D4D"/>
<path opacity="0.4" d="M109.159 244.59H114.168V466.181H109.159V244.59Z" fill="#E6E6E6"/>
<path opacity="0.4" d="M99.3141 244.59H104.323V466.181H99.3141V244.59Z" fill="#E6E6E6"/>
<path opacity="0.4" d="M89.469 244.59H94.478V466.181H89.469V244.59Z" fill="#E6E6E6"/>
<path d="M31.2623 244.59H36.2712V466.181H31.2623V244.59Z" fill="#E6E6E6"/>
<path d="M21.4172 244.59H26.4263V466.181H21.4172V244.59Z" fill="#E6E6E6"/>
<path d="M2.59082 244.59H7.59973V466.181H2.59082V244.59Z" fill="#E6E6E6"/>
<path d="M11.7449 244.59H16.7539V466.181H11.7449V244.59Z" fill="#E6E6E6"/>
<path d="M79.106 466.181H44.5618V244.59H79.106V466.181ZM73.7516 248.384H50.2615V462.387H73.7516V248.384Z" fill="#E6E6E6"/>
<path d="M69.4336 458.766H54.5796V252.005H69.4336V458.766ZM64.252 256.834H62.352H61.4884H59.5885V453.937H61.4884H62.352H64.252V256.834Z" fill="#E6E6E6"/>
<path d="M61.4884 256.833H62.3519V453.937H61.4884V256.833Z" fill="#E6E6E6"/>
<path d="M44.2163 197.168H78.7605V237.692H44.2163V197.168Z" fill="#4D4D4D"/>
<path d="M44.2163 197.168H78.7605V237.692H44.2163V197.168Z" fill="#4D4D4D"/>
<path d="M9.67236 197.168H44.2163V237.692H9.67236V197.168Z" fill="#666666"/>
<path d="M78.5876 197.168H113.132V237.692H78.5876V197.168Z" fill="#333333"/>
<path d="M40.5894 169.232H82.3877L68.3973 176.647H54.5797L40.5894 169.232Z" fill="#808080"/>
<path d="M154.239 269.766H248.717V301.151H154.239V269.766Z" fill="#E6E6E6"/>
<path d="M211.582 269.766H248.717V301.151H211.582V269.766Z" fill="#B3B3B3"/>
<path d="M211.582 301.324H284.989V453.764H211.582V301.324Z" fill="#333333"/>
<path d="M96.8961 301.324H211.582V453.764H96.8961V301.324Z" fill="#4D4D4D"/>
<path d="M220.564 285.804H277.043V301.323H220.564V285.804Z" fill="#333333"/>
<path d="M113.995 285.804H194.656V301.323H113.995V285.804Z" fill="#4D4D4D"/>
<path d="M179.284 257.867H211.582V269.766H179.284V257.867Z" fill="#E6E6E6"/>
<path d="M195.519 245.796H211.582V257.695H195.519V245.796Z" fill="#4D4D4D"/>
<path d="M211.755 245.796H227.818V257.695H211.755V245.796Z" fill="#333333"/>
<path d="M211.582 257.867H236.281V269.766H211.582V257.867Z" fill="#B3B3B3"/>
<path d="M212.619 245.796L211.582 218.205L210.719 245.796H212.619Z" fill="#333333"/>
<path opacity="0.12" d="M261.844 307.531H267.889V313.567H261.844V307.531Z" fill="white"/>
<path opacity="0.25" d="M253.553 307.531H259.599V313.567H253.553V307.531Z" fill="white"/>
<path opacity="0.36" d="M245.263 307.531H251.308V313.567H245.263V307.531Z" fill="white"/>
<path opacity="0.12" d="M236.972 307.531H243.018V313.567H236.972V307.531Z" fill="white"/>
<path opacity="0.14" d="M228.682 307.531H234.727V313.567H228.682V307.531Z" fill="white"/>
<path opacity="0.28" d="M261.844 315.464H267.889V321.499H261.844V315.464Z" fill="white"/>
<path opacity="0.4" d="M253.553 315.464H259.599V321.499H253.553V315.464Z" fill="white"/>
<path opacity="0.16" d="M245.263 315.464H251.308V321.499H245.263V315.464Z" fill="white"/>
<path opacity="0.17" d="M228.682 315.464H234.727V321.499H228.682V315.464Z" fill="white"/>
<path opacity="0.27" d="M261.844 323.396H267.889V329.432H261.844V323.396Z" fill="white"/>
<path opacity="0.45" d="M253.553 323.396H259.599V329.432H253.553V323.396Z" fill="white"/>
<path opacity="0.45" d="M245.263 323.396H251.308V329.432H245.263V323.396Z" fill="white"/>
<path opacity="0.48" d="M236.972 323.396H243.018V329.432H236.972V323.396Z" fill="white"/>
<path opacity="0.25" d="M228.682 323.396H234.727V329.432H228.682V323.396Z" fill="white"/>
<path opacity="0.28" d="M261.844 331.329H267.889V337.364H261.844V331.329Z" fill="white"/>
<path opacity="0.13" d="M253.553 331.329H259.599V337.364H253.553V331.329Z" fill="white"/>
<path opacity="0.07" d="M245.263 331.329H251.308V337.364H245.263V331.329Z" fill="white"/>
<path opacity="0.39" d="M236.972 331.329H243.018V337.364H236.972V331.329Z" fill="white"/>
<path opacity="0.47" d="M228.682 331.329H234.727V337.364H228.682V331.329Z" fill="white"/>
<path opacity="0.28" d="M261.844 339.261H267.889V345.297H261.844V339.261Z" fill="white"/>
<path opacity="0.2" d="M253.553 339.261H259.599V345.297H253.553V339.261Z" fill="white"/>
<path opacity="0.04" d="M245.263 339.261H251.308V345.297H245.263V339.261Z" fill="white"/>
<path opacity="0.43" d="M236.972 339.261H243.018V345.297H236.972V339.261Z" fill="white"/>
<path opacity="0.48" d="M228.682 339.261H234.727V345.297H228.682V339.261Z" fill="white"/>
<path opacity="0.28" d="M261.844 347.193H267.889V353.229H261.844V347.193Z" fill="white"/>
<path opacity="0.19" d="M253.553 347.193H259.599V353.229H253.553V347.193Z" fill="white"/>
<path opacity="0.01" d="M245.263 347.193H251.308V353.229H245.263V347.193Z" fill="white"/>
<path opacity="0.27" d="M236.972 347.193H243.018V353.229H236.972V347.193Z" fill="white"/>
<path opacity="0.24" d="M228.682 347.193H234.727V353.229H228.682V347.193Z" fill="white"/>
<path opacity="0.07" d="M261.844 355.298H267.889V361.334H261.844V355.298Z" fill="white"/>
<path opacity="0.25" d="M253.553 355.298H259.599V361.334H253.553V355.298Z" fill="white"/>
<path opacity="0.26" d="M245.263 355.298H251.308V361.334H245.263V355.298Z" fill="white"/>
<path opacity="0.39" d="M236.972 355.298H243.018V361.334H236.972V355.298Z" fill="white"/>
<path opacity="0.22" d="M228.682 355.298H234.727V361.334H228.682V355.298Z" fill="white"/>
<path opacity="0.15" d="M261.844 363.231H267.889V369.266H261.844V363.231Z" fill="white"/>
<path opacity="0.23" d="M253.553 363.231H259.599V369.266H253.553V363.231Z" fill="white"/>
<path opacity="0.05" d="M245.263 363.231H251.308V369.266H245.263V363.231Z" fill="white"/>
<path opacity="0.2" d="M236.972 363.231H243.018V369.266H236.972V363.231Z" fill="white"/>
<path opacity="0.31" d="M228.682 363.231H234.727V369.266H228.682V363.231Z" fill="white"/>
<path opacity="0.15" d="M261.844 371.163H267.889V377.199H261.844V371.163Z" fill="white"/>
<path opacity="0.33" d="M253.553 371.163H259.599V377.199H253.553V371.163Z" fill="white"/>
<path opacity="0.46" d="M245.263 371.163H251.308V377.199H245.263V371.163Z" fill="white"/>
<path opacity="0.25" d="M236.972 371.163H243.018V377.199H236.972V371.163Z" fill="white"/>
<path opacity="0.43" d="M228.682 371.163H234.727V377.199H228.682V371.163Z" fill="white"/>
<path opacity="0.4" d="M261.844 379.096H267.889V385.131H261.844V379.096Z" fill="white"/>
<path opacity="0.39" d="M253.553 379.096H259.599V385.131H253.553V379.096Z" fill="white"/>
<path opacity="0.01" d="M245.263 379.096H251.308V385.131H245.263V379.096Z" fill="white"/>
<path opacity="0.12" d="M236.972 379.096H243.018V385.131H236.972V379.096Z" fill="white"/>
<path opacity="0.07" d="M228.682 379.096H234.727V385.131H228.682V379.096Z" fill="white"/>
<path opacity="0.07" d="M261.844 387.028H267.889V393.064H261.844V387.028Z" fill="white"/>
<path opacity="0.02" d="M253.553 387.028H259.599V393.064H253.553V387.028Z" fill="white"/>
<path opacity="0.12" d="M245.263 387.028H251.308V393.064H245.263V387.028Z" fill="white"/>
<path opacity="0.23" d="M236.972 387.028H243.018V393.064H236.972V387.028Z" fill="white"/>
<path opacity="0.26" d="M228.682 387.028H234.727V393.064H228.682V387.028Z" fill="white"/>
<path opacity="0.27" d="M261.844 394.961H267.889V400.996H261.844V394.961Z" fill="white"/>
<path opacity="0.38" d="M253.553 394.961H259.599V400.996H253.553V394.961Z" fill="white"/>
<path opacity="0.05" d="M245.263 394.961H251.308V400.996H245.263V394.961Z" fill="white"/>
<path opacity="0.45" d="M236.972 394.961H243.018V400.996H236.972V394.961Z" fill="white"/>
<path opacity="0.15" d="M228.682 394.961H234.727V400.996H228.682V394.961Z" fill="white"/>
<path opacity="0.06" d="M261.844 402.893H267.889V408.929H261.844V402.893Z" fill="white"/>
<path opacity="0.47" d="M253.553 402.893H259.599V408.929H253.553V402.893Z" fill="white"/>
<path opacity="0.15" d="M245.263 402.893H251.308V408.929H245.263V402.893Z" fill="white"/>
<path opacity="0.44" d="M236.972 402.893H243.018V408.929H236.972V402.893Z" fill="white"/>
<path opacity="0.14" d="M228.682 402.893H234.727V408.929H228.682V402.893Z" fill="white"/>
<path opacity="0.15" d="M261.844 410.826H267.889V416.861H261.844V410.826Z" fill="white"/>
<path opacity="0.43" d="M253.553 410.826H259.599V416.861H253.553V410.826Z" fill="white"/>
<path opacity="0.07" d="M245.263 410.826H251.308V416.861H245.263V410.826Z" fill="white"/>
<path opacity="0.47" d="M236.972 410.826H243.018V416.861H236.972V410.826Z" fill="white"/>
<path opacity="0.11" d="M228.682 410.826H234.727V416.861H228.682V410.826Z" fill="white"/>
<path opacity="0.07" d="M261.844 418.758H267.889V424.794H261.844V418.758Z" fill="white"/>
<path opacity="0.34" d="M253.553 418.758H259.599V424.794H253.553V418.758Z" fill="white"/>
<path opacity="0.5" d="M245.263 418.758H251.308V424.794H245.263V418.758Z" fill="white"/>
<path opacity="0.36" d="M236.972 418.758H243.018V424.794H236.972V418.758Z" fill="white"/>
<path opacity="0.34" d="M228.682 418.758H234.727V424.794H228.682V418.758Z" fill="white"/>
<path opacity="0.47" d="M261.844 426.691H267.889V432.726H261.844V426.691Z" fill="white"/>
<path opacity="0.41" d="M253.553 426.691H259.599V432.726H253.553V426.691Z" fill="white"/>
<path opacity="0.3" d="M245.263 426.691H251.308V432.726H245.263V426.691Z" fill="white"/>
<path opacity="0.33" d="M236.972 426.691H243.018V432.726H236.972V426.691Z" fill="white"/>
<path opacity="0.12" d="M228.682 426.691H234.727V432.726H228.682V426.691Z" fill="white"/>
<path opacity="0.24" d="M261.844 434.623H267.889V440.658H261.844V434.623Z" fill="white"/>
<path opacity="0.29" d="M253.553 434.623H259.599V440.658H253.553V434.623Z" fill="white"/>
<path opacity="0.27" d="M236.972 434.623H243.018V440.658H236.972V434.623Z" fill="white"/>
<path opacity="0.04" d="M228.682 434.623H234.727V440.658H228.682V434.623Z" fill="white"/>
<path opacity="0.11" d="M261.844 442.555H267.889V448.591H261.844V442.555Z" fill="white"/>
<path opacity="0.05" d="M253.553 442.555H259.599V448.591H253.553V442.555Z" fill="white"/>
<path opacity="0.04" d="M245.263 442.555H251.308V448.591H245.263V442.555Z" fill="white"/>
<path opacity="0.02" d="M236.972 442.555H243.018V448.591H236.972V442.555Z" fill="white"/>
<path opacity="0.3" d="M191.547 307.531H197.592V313.567H191.547V307.531Z" fill="white"/>
<path opacity="0.72" d="M183.602 307.531H189.647V313.567H183.602V307.531Z" fill="white"/>
<path opacity="0.7" d="M175.484 307.531H181.529V313.567H175.484V307.531Z" fill="white"/>
<path opacity="0.52" d="M167.366 307.531H173.411V313.567H167.366V307.531Z" fill="white"/>
<path opacity="0.2" d="M159.248 307.531H165.294V313.567H159.248V307.531Z" fill="white"/>
<path opacity="0.32" d="M151.303 307.531H157.348V313.567H151.303V307.531Z" fill="white"/>
<path opacity="0.13" d="M143.185 307.531H149.23V313.567H143.185V307.531Z" fill="white"/>
<path opacity="0.38" d="M135.067 307.531H141.113V313.567H135.067V307.531Z" fill="white"/>
<path opacity="0.61" d="M127.122 307.531H133.167V313.567H127.122V307.531Z" fill="white"/>
<path d="M119.004 307.531H125.05V313.567H119.004V307.531Z" fill="white"/>
<path opacity="0.91" d="M110.887 307.531H116.932V313.567H110.887V307.531Z" fill="white"/>
<path opacity="0.66" d="M191.547 315.464H197.592V321.499H191.547V315.464Z" fill="white"/>
<path opacity="0.31" d="M183.602 315.464H189.647V321.499H183.602V315.464Z" fill="white"/>
<path opacity="0.95" d="M175.484 315.464H181.529V321.499H175.484V315.464Z" fill="white"/>
<path opacity="0.7" d="M167.366 315.464H173.411V321.499H167.366V315.464Z" fill="white"/>
<path opacity="0.12" d="M159.248 315.464H165.294V321.499H159.248V315.464Z" fill="white"/>
<path opacity="0.24" d="M151.303 315.464H157.348V321.499H151.303V315.464Z" fill="white"/>
<path opacity="0.66" d="M143.185 315.464H149.23V321.499H143.185V315.464Z" fill="white"/>
<path opacity="0.71" d="M135.067 315.464H141.113V321.499H135.067V315.464Z" fill="white"/>
<path opacity="0.42" d="M127.122 315.464H133.167V321.499H127.122V315.464Z" fill="white"/>
<path opacity="0.09" d="M119.004 315.464H125.05V321.499H119.004V315.464Z" fill="white"/>
<path opacity="0.32" d="M110.887 315.464H116.932V321.499H110.887V315.464Z" fill="white"/>
<path opacity="0.65" d="M191.547 323.396H197.592V329.432H191.547V323.396Z" fill="white"/>
<path d="M183.602 323.396H189.647V329.432H183.602V323.396Z" fill="white"/>
<path d="M175.484 323.396H181.529V329.432H175.484V323.396Z" fill="white"/>
<path opacity="0.71" d="M167.366 323.396H173.411V329.432H167.366V323.396Z" fill="white"/>
<path opacity="0.2" d="M159.248 323.396H165.294V329.432H159.248V323.396Z" fill="white"/>
<path opacity="0.19" d="M151.303 323.396H157.348V329.432H151.303V323.396Z" fill="white"/>
<path opacity="0.62" d="M143.185 323.396H149.23V329.432H143.185V323.396Z" fill="white"/>
<path opacity="0.93" d="M135.067 323.396H141.113V329.432H135.067V323.396Z" fill="white"/>
<path opacity="0.56" d="M127.122 323.396H133.167V329.432H127.122V323.396Z" fill="white"/>
<path opacity="0.57" d="M119.004 323.396H125.05V329.432H119.004V323.396Z" fill="white"/>
<path opacity="0.52" d="M110.887 323.396H116.932V329.432H110.887V323.396Z" fill="white"/>
<path opacity="0.74" d="M191.547 331.329H197.592V337.364H191.547V331.329Z" fill="white"/>
<path opacity="0.56" d="M183.602 331.329H189.647V337.364H183.602V331.329Z" fill="white"/>
<path opacity="0.78" d="M175.484 331.329H181.529V337.364H175.484V331.329Z" fill="white"/>
<path opacity="0.41" d="M167.366 331.329H173.411V337.364H167.366V331.329Z" fill="white"/>
<path opacity="0.14" d="M159.248 331.329H165.294V337.364H159.248V331.329Z" fill="white"/>
<path opacity="0.28" d="M151.303 331.329H157.348V337.364H151.303V331.329Z" fill="white"/>
<path opacity="0.36" d="M143.185 331.329H149.23V337.364H143.185V331.329Z" fill="white"/>
<path opacity="0.14" d="M135.067 331.329H141.113V337.364H135.067V331.329Z" fill="white"/>
<path opacity="0.5" d="M127.122 331.329H133.167V337.364H127.122V331.329Z" fill="white"/>
<path opacity="0.98" d="M119.004 331.329H125.05V337.364H119.004V331.329Z" fill="white"/>
<path opacity="0.59" d="M110.887 331.329H116.932V337.364H110.887V331.329Z" fill="white"/>
<path opacity="0.07" d="M191.547 339.261H197.592V345.297H191.547V339.261Z" fill="white"/>
<path opacity="0.1" d="M183.602 339.261H189.647V345.297H183.602V339.261Z" fill="white"/>
<path opacity="0.88" d="M175.484 339.261H181.529V345.297H175.484V339.261Z" fill="white"/>
<path opacity="0.68" d="M167.366 339.261H173.411V345.297H167.366V339.261Z" fill="white"/>
<path opacity="0.81" d="M159.248 339.261H165.294V345.297H159.248V339.261Z" fill="white"/>
<path opacity="0.62" d="M151.303 339.261H157.348V345.297H151.303V339.261Z" fill="white"/>
<path opacity="0.97" d="M143.185 339.261H149.23V345.297H143.185V339.261Z" fill="white"/>
<path opacity="0.81" d="M135.067 339.261H141.113V345.297H135.067V339.261Z" fill="white"/>
<path opacity="0.79" d="M127.122 339.261H133.167V345.297H127.122V339.261Z" fill="white"/>
<path opacity="0.03" d="M119.004 339.261H125.05V345.297H119.004V339.261Z" fill="white"/>
<path opacity="0.95" d="M110.887 339.261H116.932V345.297H110.887V339.261Z" fill="white"/>
<path opacity="0.62" d="M191.547 347.193H197.592V353.229H191.547V347.193Z" fill="white"/>
<path opacity="0.22" d="M183.602 347.193H189.647V353.229H183.602V347.193Z" fill="white"/>
<path opacity="0.42" d="M175.484 347.193H181.529V353.229H175.484V347.193Z" fill="white"/>
<path opacity="0.56" d="M167.366 347.193H173.411V353.229H167.366V347.193Z" fill="white"/>
<path opacity="0.03" d="M159.248 347.193H165.294V353.229H159.248V347.193Z" fill="white"/>
<path opacity="0.64" d="M151.303 347.193H157.348V353.229H151.303V347.193Z" fill="white"/>
<path opacity="0.82" d="M143.185 347.193H149.23V353.229H143.185V347.193Z" fill="white"/>
<path opacity="0.52" d="M135.067 347.193H141.113V353.229H135.067V347.193Z" fill="white"/>
<path opacity="0.46" d="M127.122 347.193H133.167V353.229H127.122V347.193Z" fill="white"/>
<path opacity="0.27" d="M119.004 347.193H125.05V353.229H119.004V347.193Z" fill="white"/>
<path opacity="0.46" d="M110.887 347.193H116.932V353.229H110.887V347.193Z" fill="white"/>
<path opacity="0.66" d="M191.547 355.298H197.592V361.334H191.547V355.298Z" fill="white"/>
<path opacity="0.7" d="M183.602 355.298H189.647V361.334H183.602V355.298Z" fill="white"/>
<path opacity="0.94" d="M175.484 355.298H181.529V361.334H175.484V355.298Z" fill="white"/>
<path opacity="0.5" d="M167.366 355.298H173.411V361.334H167.366V355.298Z" fill="white"/>
<path opacity="0.12" d="M159.248 355.298H165.294V361.334H159.248V355.298Z" fill="white"/>
<path opacity="0.36" d="M151.303 355.298H157.348V361.334H151.303V355.298Z" fill="white"/>
<path opacity="0.51" d="M143.185 355.298H149.23V361.334H143.185V355.298Z" fill="white"/>
<path opacity="0.37" d="M135.067 355.298H141.113V361.334H135.067V355.298Z" fill="white"/>
<path opacity="0.66" d="M127.122 355.298H133.167V361.334H127.122V355.298Z" fill="white"/>
<path opacity="0.42" d="M119.004 355.298H125.05V361.334H119.004V355.298Z" fill="white"/>
<path opacity="0.5" d="M110.887 355.298H116.932V361.334H110.887V355.298Z" fill="white"/>
<path opacity="0.52" d="M191.547 363.231H197.592V369.266H191.547V363.231Z" fill="white"/>
<path opacity="0.61" d="M183.602 363.231H189.647V369.266H183.602V363.231Z" fill="white"/>
<path opacity="0.84" d="M175.484 363.231H181.529V369.266H175.484V363.231Z" fill="white"/>
<path opacity="0.89" d="M167.366 363.231H173.411V369.266H167.366V363.231Z" fill="white"/>
<path opacity="0.33" d="M159.248 363.231H165.294V369.266H159.248V363.231Z" fill="white"/>
<path opacity="0.25" d="M151.303 363.231H157.348V369.266H151.303V363.231Z" fill="white"/>
<path opacity="0.95" d="M143.185 363.231H149.23V369.266H143.185V363.231Z" fill="white"/>
<path opacity="0.09" d="M135.067 363.231H141.113V369.266H135.067V363.231Z" fill="white"/>
<path opacity="0.44" d="M127.122 363.231H133.167V369.266H127.122V363.231Z" fill="white"/>
<path opacity="0.51" d="M119.004 363.231H125.05V369.266H119.004V363.231Z" fill="white"/>
<path opacity="0.97" d="M110.887 363.231H116.932V369.266H110.887V363.231Z" fill="white"/>
<path opacity="0.26" d="M191.547 371.163H197.592V377.199H191.547V371.163Z" fill="white"/>
<path opacity="0.92" d="M183.602 371.163H189.647V377.199H183.602V371.163Z" fill="white"/>
<path opacity="0.33" d="M175.484 371.163H181.529V377.199H175.484V371.163Z" fill="white"/>
<path opacity="0.23" d="M167.366 371.163H173.411V377.199H167.366V371.163Z" fill="white"/>
<path opacity="0.42" d="M159.248 371.163H165.294V377.199H159.248V371.163Z" fill="white"/>
<path opacity="0.57" d="M151.303 371.163H157.348V377.199H151.303V371.163Z" fill="white"/>
<path opacity="0.73" d="M143.185 371.163H149.23V377.199H143.185V371.163Z" fill="white"/>
<path opacity="0.87" d="M135.067 371.163H141.113V377.199H135.067V371.163Z" fill="white"/>
<path opacity="0.22" d="M127.122 371.163H133.167V377.199H127.122V371.163Z" fill="white"/>
<path opacity="0.89" d="M119.004 371.163H125.05V377.199H119.004V371.163Z" fill="white"/>
<path opacity="0.73" d="M110.887 371.163H116.932V377.199H110.887V371.163Z" fill="white"/>
<path opacity="0.35" d="M191.547 379.096H197.592V385.131H191.547V379.096Z" fill="white"/>
<path opacity="0.81" d="M183.602 379.096H189.647V385.131H183.602V379.096Z" fill="white"/>
<path opacity="0.56" d="M175.484 379.096H181.529V385.131H175.484V379.096Z" fill="white"/>
<path opacity="0.81" d="M167.366 379.096H173.411V385.131H167.366V379.096Z" fill="white"/>
<path opacity="0.87" d="M159.248 379.096H165.294V385.131H159.248V379.096Z" fill="white"/>
<path opacity="0.39" d="M151.303 379.096H157.348V385.131H151.303V379.096Z" fill="white"/>
<path opacity="0.31" d="M143.185 379.096H149.23V385.131H143.185V379.096Z" fill="white"/>
<path opacity="0.98" d="M135.067 379.096H141.113V385.131H135.067V379.096Z" fill="white"/>
<path opacity="0.17" d="M127.122 379.096H133.167V385.131H127.122V379.096Z" fill="white"/>
<path opacity="0.06" d="M119.004 379.096H125.05V385.131H119.004V379.096Z" fill="white"/>
<path opacity="0.57" d="M110.887 379.096H116.932V385.131H110.887V379.096Z" fill="white"/>
<path opacity="0.67" d="M191.547 387.028H197.592V393.064H191.547V387.028Z" fill="white"/>
<path opacity="0.83" d="M183.602 387.028H189.647V393.064H183.602V387.028Z" fill="white"/>
<path opacity="0.99" d="M175.484 387.028H181.529V393.064H175.484V387.028Z" fill="white"/>
<path opacity="0.62" d="M167.366 387.028H173.411V393.064H167.366V387.028Z" fill="white"/>
<path opacity="0.87" d="M159.248 387.028H165.294V393.064H159.248V387.028Z" fill="white"/>
<path opacity="0.14" d="M151.303 387.028H157.348V393.064H151.303V387.028Z" fill="white"/>
<path opacity="0.12" d="M143.185 387.028H149.23V393.064H143.185V387.028Z" fill="white"/>
<path opacity="0.11" d="M135.067 387.028H141.113V393.064H135.067V387.028Z" fill="white"/>
<path opacity="0.39" d="M127.122 387.028H133.167V393.064H127.122V387.028Z" fill="white"/>
<path opacity="0.58" d="M119.004 387.028H125.05V393.064H119.004V387.028Z" fill="white"/>
<path opacity="0.54" d="M110.887 387.028H116.932V393.064H110.887V387.028Z" fill="white"/>
<path opacity="0.99" d="M191.547 394.961H197.592V400.996H191.547V394.961Z" fill="white"/>
<path opacity="0.28" d="M183.602 394.961H189.647V400.996H183.602V394.961Z" fill="white"/>
<path opacity="0.78" d="M175.484 394.961H181.529V400.996H175.484V394.961Z" fill="white"/>
<path opacity="0.65" d="M167.366 394.961H173.411V400.996H167.366V394.961Z" fill="white"/>
<path opacity="0.32" d="M159.248 394.961H165.294V400.996H159.248V394.961Z" fill="white"/>
<path opacity="0.55" d="M151.303 394.961H157.348V400.996H151.303V394.961Z" fill="white"/>
<path opacity="0.4" d="M143.185 394.961H149.23V400.996H143.185V394.961Z" fill="white"/>
<path opacity="0.22" d="M135.067 394.961H141.113V400.996H135.067V394.961Z" fill="white"/>
<path opacity="0.87" d="M127.122 394.961H133.167V400.996H127.122V394.961Z" fill="white"/>
<path opacity="0.02" d="M119.004 394.961H125.05V400.996H119.004V394.961Z" fill="white"/>
<path opacity="0.39" d="M110.887 394.961H116.932V400.996H110.887V394.961Z" fill="white"/>
<path opacity="0.89" d="M191.547 402.893H197.592V408.929H191.547V402.893Z" fill="white"/>
<path opacity="0.97" d="M183.602 402.893H189.647V408.929H183.602V402.893Z" fill="white"/>
<path opacity="0.79" d="M175.484 402.893H181.529V408.929H175.484V402.893Z" fill="white"/>
<path opacity="0.41" d="M167.366 402.893H173.411V408.929H167.366V402.893Z" fill="white"/>
<path opacity="0.13" d="M159.248 402.893H165.294V408.929H159.248V402.893Z" fill="white"/>
<path opacity="0.9" d="M151.303 402.893H157.348V408.929H151.303V402.893Z" fill="white"/>
<path opacity="0.98" d="M143.185 402.893H149.23V408.929H143.185V402.893Z" fill="white"/>
<path opacity="0.67" d="M135.067 402.893H141.113V408.929H135.067V402.893Z" fill="white"/>
<path opacity="0.65" d="M127.122 402.893H133.167V408.929H127.122V402.893Z" fill="white"/>
<path opacity="0.89" d="M119.004 402.893H125.05V408.929H119.004V402.893Z" fill="white"/>
<path opacity="0.98" d="M110.887 402.893H116.932V408.929H110.887V402.893Z" fill="white"/>
<path opacity="0.29" d="M191.547 410.826H197.592V416.861H191.547V410.826Z" fill="white"/>
<path opacity="0.74" d="M183.602 410.826H189.647V416.861H183.602V410.826Z" fill="white"/>
<path opacity="0.64" d="M175.484 410.826H181.529V416.861H175.484V410.826Z" fill="white"/>
<path opacity="0.65" d="M167.366 410.826H173.411V416.861H167.366V410.826Z" fill="white"/>
<path opacity="0.07" d="M159.248 410.826H165.294V416.861H159.248V410.826Z" fill="white"/>
<path opacity="0.16" d="M151.303 410.826H157.348V416.861H151.303V410.826Z" fill="white"/>
<path opacity="0.84" d="M143.185 410.826H149.23V416.861H143.185V410.826Z" fill="white"/>
<path opacity="0.88" d="M135.067 410.826H141.113V416.861H135.067V410.826Z" fill="white"/>
<path opacity="0.57" d="M127.122 410.826H133.167V416.861H127.122V410.826Z" fill="white"/>
<path opacity="0.31" d="M119.004 410.826H125.05V416.861H119.004V410.826Z" fill="white"/>
<path opacity="0.03" d="M110.887 410.826H116.932V416.861H110.887V410.826Z" fill="white"/>
<path opacity="0.3" d="M191.547 418.758H197.592V424.794H191.547V418.758Z" fill="white"/>
<path opacity="0.59" d="M183.602 418.758H189.647V424.794H183.602V418.758Z" fill="white"/>
<path opacity="0.93" d="M175.484 418.758H181.529V424.794H175.484V418.758Z" fill="white"/>
<path opacity="0.06" d="M167.366 418.758H173.411V424.794H167.366V418.758Z" fill="white"/>
<path opacity="0.74" d="M159.248 418.758H165.294V424.794H159.248V418.758Z" fill="white"/>
<path opacity="0.22" d="M151.303 418.758H157.348V424.794H151.303V418.758Z" fill="white"/>
<path opacity="0.51" d="M143.185 418.758H149.23V424.794H143.185V418.758Z" fill="white"/>
<path opacity="0.7" d="M135.067 418.758H141.113V424.794H135.067V418.758Z" fill="white"/>
<path opacity="0.47" d="M127.122 418.758H133.167V424.794H127.122V418.758Z" fill="white"/>
<path opacity="0.08" d="M119.004 418.758H125.05V424.794H119.004V418.758Z" fill="white"/>
<path opacity="0.93" d="M110.887 418.758H116.932V424.794H110.887V418.758Z" fill="white"/>
<path opacity="0.81" d="M191.547 426.691H197.592V432.726H191.547V426.691Z" fill="white"/>
<path opacity="0.9" d="M183.602 426.691H189.647V432.726H183.602V426.691Z" fill="white"/>
<path opacity="0.55" d="M175.484 426.691H181.529V432.726H175.484V426.691Z" fill="white"/>
<path opacity="0.14" d="M167.366 426.691H173.411V432.726H167.366V426.691Z" fill="white"/>
<path opacity="0.66" d="M159.248 426.691H165.294V432.726H159.248V426.691Z" fill="white"/>
<path opacity="0.92" d="M151.303 426.691H157.348V432.726H151.303V426.691Z" fill="white"/>
<path opacity="0.4" d="M143.185 426.691H149.23V432.726H143.185V426.691Z" fill="white"/>
<path opacity="0.6" d="M135.067 426.691H141.113V432.726H135.067V426.691Z" fill="white"/>
<path opacity="0.99" d="M127.122 426.691H133.167V432.726H127.122V426.691Z" fill="white"/>
<path opacity="0.68" d="M119.004 426.691H125.05V432.726H119.004V426.691Z" fill="white"/>
<path opacity="0.01" d="M110.887 426.691H116.932V432.726H110.887V426.691Z" fill="white"/>
<path opacity="0.82" d="M191.547 434.623H197.592V440.658H191.547V434.623Z" fill="white"/>
<path opacity="0.92" d="M183.602 434.623H189.647V440.658H183.602V434.623Z" fill="white"/>
<path opacity="0.29" d="M175.484 434.623H181.529V440.658H175.484V434.623Z" fill="white"/>
<path opacity="0.73" d="M167.366 434.623H173.411V440.658H167.366V434.623Z" fill="white"/>
<path opacity="0.42" d="M159.248 434.623H165.294V440.658H159.248V434.623Z" fill="white"/>
<path opacity="0.06" d="M151.303 434.623H157.348V440.658H151.303V434.623Z" fill="white"/>
<path opacity="0.7" d="M143.185 434.623H149.23V440.658H143.185V434.623Z" fill="white"/>
<path opacity="0.97" d="M135.067 434.623H141.113V440.658H135.067V434.623Z" fill="white"/>
<path opacity="0.51" d="M127.122 434.623H133.167V440.658H127.122V434.623Z" fill="white"/>
<path opacity="0.69" d="M119.004 434.623H125.05V440.658H119.004V434.623Z" fill="white"/>
<path opacity="0.49" d="M110.887 434.623H116.932V440.658H110.887V434.623Z" fill="white"/>
<path opacity="0.45" d="M191.547 442.555H197.592V448.591H191.547V442.555Z" fill="white"/>
<path opacity="0.46" d="M183.602 442.555H189.647V448.591H183.602V442.555Z" fill="white"/>
<path opacity="0.04" d="M175.484 442.555H181.529V448.591H175.484V442.555Z" fill="white"/>
<path opacity="0.56" d="M167.366 442.555H173.411V448.591H167.366V442.555Z" fill="white"/>
<path opacity="0.4" d="M159.248 442.555H165.294V448.591H159.248V442.555Z" fill="white"/>
<path opacity="0.59" d="M151.303 442.555H157.348V448.591H151.303V442.555Z" fill="white"/>
<path opacity="0.82" d="M143.185 442.555H149.23V448.591H143.185V442.555Z" fill="white"/>
<path opacity="0.99" d="M135.067 442.555H141.113V448.591H135.067V442.555Z" fill="white"/>
<path opacity="0.1" d="M127.122 442.555H133.167V448.591H127.122V442.555Z" fill="white"/>
<path opacity="0.87" d="M119.004 442.555H125.05V448.591H119.004V442.555Z" fill="white"/>
<path d="M110.887 442.555H116.932V448.591H110.887V442.555Z" fill="white"/>
<path d="M293.625 268.732H350.622V447.04H293.625V268.732Z" fill="#333333"/>
<path d="M324.714 259.765H350.622V269.766H324.714V259.765Z" fill="#333333"/>
<path d="M335.596 253.902H350.622V259.765H335.596V253.902Z" fill="#333333"/>
<path opacity="0.25" d="M317.633 281.32H326.96V290.632H317.633V281.32Z" fill="white"/>
<path opacity="0.15" d="M317.633 304.255H326.96V313.567H317.633V304.255Z" fill="white"/>
<path opacity="0.19" d="M317.633 349.953H326.96V359.265H317.633V349.953Z" fill="white"/>
<path opacity="0.17" d="M317.633 372.716H326.96V382.028H317.633V372.716Z" fill="white"/>
<path opacity="0.22" d="M317.633 395.478H326.96V404.79H317.633V395.478Z" fill="white"/>
<path d="M317.633 418.414H326.96V427.726H317.633V418.414Z" fill="white"/>
<path d="M335.941 368.06H389.312V383.752H335.941V368.06Z" fill="#333333"/>
<path d="M309.342 368.06H335.941V383.752H309.342V368.06Z" fill="#4D4D4D"/>
<path d="M389.312 368.06L372.73 360.127L335.941 368.06H389.312Z" fill="#333333"/>
<path d="M372.73 360.127L335.941 368.06H309.342L372.73 360.127Z" fill="#4D4D4D"/>
<path d="M323.505 379.096H401.575V450.488H323.505V379.096Z" fill="#333333"/>
<path d="M297.597 379.096H323.505V450.488H297.597V379.096Z" fill="#4D4D4D"/>
<path opacity="0.81" d="M303.642 384.097H317.633V389.27H303.642V384.097Z" fill="white"/>
<path opacity="0.76" d="M303.642 393.581H317.633V398.754H303.642V393.581Z" fill="white"/>
<path opacity="0.32" d="M303.642 403.066H317.633V408.239H303.642V403.066Z" fill="white"/>
<path opacity="0.49" d="M303.642 412.723H317.633V417.896H303.642V412.723Z" fill="white"/>
<path opacity="0.99" d="M303.642 431.691H317.633V436.865H303.642V431.691Z" fill="white"/>
<path opacity="0.1" d="M375.148 384.097H389.139V389.27H375.148V384.097Z" fill="white"/>
<path opacity="0.04" d="M355.631 384.097H369.622V389.27H355.631V384.097Z" fill="white"/>
<path opacity="0.07" d="M335.941 384.097H349.931V389.27H335.941V384.097Z" fill="white"/>
<path opacity="0.06" d="M375.148 393.582H389.139V398.755H375.148V393.582Z" fill="white"/>
<path opacity="0.44" d="M355.631 393.582H369.622V398.755H355.631V393.582Z" fill="white"/>
<path opacity="0.24" d="M335.941 393.582H349.931V398.755H335.941V393.582Z" fill="white"/>
<path opacity="0.55" d="M375.148 403.066H389.139V408.239H375.148V403.066Z" fill="white"/>
<path opacity="0.02" d="M355.631 403.066H369.622V408.239H355.631V403.066Z" fill="white"/>
<path opacity="0.14" d="M335.941 403.066H349.931V408.239H335.941V403.066Z" fill="white"/>
<path opacity="0.43" d="M375.148 412.723H389.139V417.896H375.148V412.723Z" fill="white"/>
<path opacity="0.41" d="M355.631 412.723H369.622V417.896H355.631V412.723Z" fill="white"/>
<path opacity="0.46" d="M335.941 412.723H349.931V417.896H335.941V412.723Z" fill="white"/>
<path opacity="0.45" d="M375.148 422.207H389.139V427.38H375.148V422.207Z" fill="white"/>
<path opacity="0.33" d="M355.631 422.207H369.622V427.38H355.631V422.207Z" fill="white"/>
<path opacity="0.05" d="M335.941 422.207H349.931V427.38H335.941V422.207Z" fill="white"/>
<path opacity="0.27" d="M375.148 431.692H389.139V436.865H375.148V431.692Z" fill="white"/>
<path opacity="0.15" d="M355.631 431.692H369.622V436.865H355.631V431.692Z" fill="white"/>
<path opacity="0.7" d="M335.941 431.692H349.931V436.865H335.941V431.692Z" fill="white"/>
<path d="M703.317 307.704H751.679V456.524H703.317V307.704Z" fill="#333333"/>
<path d="M648.219 307.704H703.144V456.524H648.219V307.704Z" fill="#4D4D4D"/>
<path d="M703.317 320.293H751.679V322.88H703.317V320.293Z" fill="#4D4D4D"/>
<path d="M648.219 320.293H703.144V322.88H648.219V320.293Z" fill="#333333"/>
<path opacity="0.32" d="M728.361 325.811H733.543V330.984H728.361V325.811Z" fill="white"/>
<path opacity="0.25" d="M721.28 325.811H726.462V330.984H721.28V325.811Z" fill="white"/>
<path opacity="0.12" d="M707.117 325.811H712.298V330.984H707.117V325.811Z" fill="white"/>
<path opacity="0.22" d="M728.361 332.881H733.543V338.055H728.361V332.881Z" fill="white"/>
<path opacity="0.47" d="M721.28 332.881H726.462V338.055H721.28V332.881Z" fill="white"/>
<path opacity="0.22" d="M714.198 332.881H719.38V338.055H714.198V332.881Z" fill="white"/>
<path opacity="0.32" d="M707.117 332.881H712.298V338.055H707.117V332.881Z" fill="white"/>
<path opacity="0.18" d="M728.361 339.952H733.543V345.125H728.361V339.952Z" fill="white"/>
<path opacity="0.28" d="M721.28 339.952H726.462V345.125H721.28V339.952Z" fill="white"/>
<path opacity="0.2" d="M707.117 339.952H712.298V345.125H707.117V339.952Z" fill="white"/>
<path opacity="0.33" d="M728.361 347.022H733.543V352.195H728.361V347.022Z" fill="white"/>
<path opacity="0.05" d="M721.28 347.022H726.462V352.195H721.28V347.022Z" fill="white"/>
<path opacity="0.08" d="M714.198 347.022H719.38V352.195H714.198V347.022Z" fill="white"/>
<path opacity="0.08" d="M721.28 354.092H726.462V359.265H721.28V354.092Z" fill="white"/>
<path opacity="0.02" d="M714.198 354.092H719.38V359.265H714.198V354.092Z" fill="white"/>
<path opacity="0.05" d="M728.361 361.162H733.543V366.336H728.361V361.162Z" fill="white"/>
<path opacity="0.2" d="M721.28 361.162H726.462V366.336H721.28V361.162Z" fill="white"/>
<path opacity="0.23" d="M714.198 361.162H719.38V366.336H714.198V361.162Z" fill="white"/>
<path opacity="0.14" d="M728.361 368.233H733.543V373.406H728.361V368.233Z" fill="white"/>
<path opacity="0.24" d="M714.198 368.233H719.38V373.406H714.198V368.233Z" fill="white"/>
<path opacity="0.23" d="M728.361 375.303H733.543V380.476H728.361V375.303Z" fill="white"/>
<path opacity="0.02" d="M721.28 375.303H726.462V380.476H721.28V375.303Z" fill="white"/>
<path opacity="0.04" d="M714.198 375.303H719.38V380.476H714.198V375.303Z" fill="white"/>
<path opacity="0.3" d="M707.117 375.303H712.298V380.476H707.117V375.303Z" fill="white"/>
<path opacity="0.4" d="M707.117 382.2H712.298V387.374H707.117V382.2Z" fill="white"/>
<path opacity="0.12" d="M728.361 389.271H733.543V394.444H728.361V389.271Z" fill="white"/>
<path opacity="0.19" d="M714.198 389.271H719.38V394.444H714.198V389.271Z" fill="white"/>
<path opacity="0.43" d="M707.117 389.271H712.298V394.444H707.117V389.271Z" fill="white"/>
<path opacity="0.42" d="M721.28 396.341H726.462V401.514H721.28V396.341Z" fill="white"/>
<path opacity="0.31" d="M707.117 396.341H712.298V401.514H707.117V396.341Z" fill="white"/>
<path opacity="0.31" d="M721.28 403.411H726.462V408.585H721.28V403.411Z" fill="white"/>
<path opacity="0.33" d="M707.117 403.411H712.298V408.585H707.117V403.411Z" fill="white"/>
<path opacity="0.17" d="M721.28 410.481H726.462V415.655H721.28V410.481Z" fill="white"/>
<path opacity="0.01" d="M714.198 410.481H719.38V415.655H714.198V410.481Z" fill="white"/>
<path opacity="0.48" d="M707.117 410.481H712.298V415.655H707.117V410.481Z" fill="white"/>
<path opacity="0.28" d="M728.361 417.551H733.543V422.725H728.361V417.551Z" fill="white"/>
<path opacity="0.02" d="M721.28 417.551H726.462V422.725H721.28V417.551Z" fill="white"/>
<path opacity="0.17" d="M714.198 417.551H719.38V422.725H714.198V417.551Z" fill="white"/>
<path opacity="0.42" d="M707.117 417.551H712.298V422.725H707.117V417.551Z" fill="white"/>
<path opacity="0.11" d="M728.361 424.622H733.543V429.795H728.361V424.622Z" fill="white"/>
<path opacity="0.02" d="M721.28 424.622H726.462V429.795H721.28V424.622Z" fill="white"/>
<path opacity="0.3" d="M707.117 424.622H712.298V429.795H707.117V424.622Z" fill="white"/>
<path opacity="0.19" d="M728.361 431.692H733.543V436.865H728.361V431.692Z" fill="white"/>
<path opacity="0.05" d="M721.28 431.692H726.462V436.865H721.28V431.692Z" fill="white"/>
<path opacity="0.2" d="M707.117 431.692H712.298V436.865H707.117V431.692Z" fill="white"/>
<path opacity="0.27" d="M721.28 438.762H726.462V443.936H721.28V438.762Z" fill="white"/>
<path opacity="0.13" d="M714.198 438.762H719.38V443.936H714.198V438.762Z" fill="white"/>
<path opacity="0.46" d="M728.361 445.832H733.543V451.006H728.361V445.832Z" fill="white"/>
<path opacity="0.12" d="M721.28 445.832H726.462V451.006H721.28V445.832Z" fill="white"/>
<path opacity="0.04" d="M714.198 445.832H719.38V451.006H714.198V445.832Z" fill="white"/>
<path opacity="0.3" d="M707.117 445.832H712.298V451.006H707.117V445.832Z" fill="white"/>
<path opacity="0.08" d="M714.198 325.811H719.38V330.984H714.198V325.811Z" fill="white"/>
<path opacity="0.08" d="M714.198 339.952H719.38V345.125H714.198V339.952Z" fill="white"/>
<path opacity="0.01" d="M707.117 347.022H712.298V352.195H707.117V347.022Z" fill="white"/>
<path opacity="0.15" d="M728.361 354.092H733.543V359.265H728.361V354.092Z" fill="white"/>
<path opacity="0.12" d="M707.117 354.092H712.298V359.265H707.117V354.092Z" fill="white"/>
<path opacity="0.13" d="M721.28 368.233H726.462V373.406H721.28V368.233Z" fill="white"/>
<path opacity="0.07" d="M707.117 368.233H712.298V373.406H707.117V368.233Z" fill="white"/>
<path opacity="0.02" d="M728.361 382.2H733.543V387.374H728.361V382.2Z" fill="white"/>
<path opacity="0.02" d="M721.28 382.2H726.462V387.374H721.28V382.2Z" fill="white"/>
<path opacity="0.14" d="M714.198 382.2H719.38V387.374H714.198V382.2Z" fill="white"/>
<path opacity="0.09" d="M728.361 396.341H733.543V401.514H728.361V396.341Z" fill="white"/>
<path opacity="0.02" d="M714.198 396.341H719.38V401.514H714.198V396.341Z" fill="white"/>
<path opacity="0.19" d="M728.361 403.411H733.543V408.585H728.361V403.411Z" fill="white"/>
<path opacity="0.06" d="M714.198 403.411H719.38V408.585H714.198V403.411Z" fill="white"/>
<path opacity="0.16" d="M728.361 410.481H733.543V415.655H728.361V410.481Z" fill="white"/>
<path opacity="0.04" d="M714.198 424.622H719.38V429.795H714.198V424.622Z" fill="white"/>
<path opacity="0.04" d="M714.198 431.692H719.38V436.865H714.198V431.692Z" fill="white"/>
<path opacity="0.18" d="M707.117 438.762H712.298V443.936H707.117V438.762Z" fill="white"/>
<g opacity="0.7">
<path opacity="0.7" d="M692.781 322.879H698.135V449.971H692.781V322.879Z" fill="#E6E6E6"/>
<path opacity="0.7" d="M683.627 322.879H688.981V449.971H683.627V322.879Z" fill="#E6E6E6"/>
<path opacity="0.7" d="M674.3 322.879H679.654V449.971H674.3V322.879Z" fill="#E6E6E6"/>
<path opacity="0.7" d="M664.973 322.879H670.327V449.971H664.973V322.879Z" fill="#E6E6E6"/>
<path opacity="0.7" d="M655.646 322.879H661V449.971H655.646V322.879Z" fill="#E6E6E6"/>
</g>
<path d="M620.584 449.971H728.016L620.584 356.506V449.971Z" fill="#333333"/>
<path d="M629.738 433.417H666.7V454.11H629.738V433.417Z" fill="#4D4D4D"/>
<path d="M632.502 428.588H663.937V438.245H632.502V428.588Z" fill="#4D4D4D"/>
<path d="M636.129 431.52H660.483L652.019 417.379H644.592L636.129 431.52Z" fill="#4D4D4D"/>
<path d="M639.583 437.555H656.855V450.144H639.583V437.555Z" fill="white"/>
<path d="M637.511 442.556H658.928V445.143H637.511V442.556Z" fill="#4D4D4D"/>
<path d="M464.79 467.388C464.272 480.839 474.635 492.392 488.28 492.91C501.752 493.427 513.325 482.908 513.843 469.457C514.361 456.007 503.998 444.453 490.353 443.936C476.881 443.418 465.481 453.937 464.79 467.388Z" fill="#333333"/>
<path d="M468.935 460.662C468.59 468.422 474.635 474.975 482.408 475.32C490.18 475.665 496.743 469.63 497.089 461.87C497.434 454.11 491.389 447.557 483.617 447.212C475.844 446.867 469.281 452.902 468.935 460.662Z" fill="#4D4D4D"/>
<path d="M711.435 442.039C711.435 445.315 714.198 448.074 717.48 448.074C720.762 448.074 723.525 445.315 723.525 442.039C723.525 438.762 720.762 436.003 717.48 436.003C714.198 436.003 711.435 438.59 711.435 442.039Z" fill="#333333"/>
<path d="M709.362 448.074C709.362 452.558 712.989 456.179 717.48 456.179C721.971 456.179 725.598 452.558 725.598 448.074C725.598 443.591 721.971 439.969 717.48 439.969C712.989 439.969 709.362 443.591 709.362 448.074Z" fill="#333333"/>
<path d="M713.507 436.865C713.507 439.107 715.235 441.004 717.48 441.004C719.725 441.004 721.453 439.107 721.453 436.865C721.453 434.624 719.725 432.727 717.48 432.727C715.235 432.727 713.507 434.624 713.507 436.865Z" fill="#333333"/>
<path d="M712.298 442.039C712.298 443.936 713.853 445.488 715.753 445.488C717.653 445.488 719.207 443.936 719.207 442.039C719.207 440.142 717.653 438.59 715.753 438.59C713.853 438.59 712.298 440.142 712.298 442.039Z" fill="#4D4D4D"/>
<path d="M714.026 437.383C714.026 438.762 715.235 439.969 716.616 439.969C717.998 439.969 719.207 438.762 719.207 437.383C719.207 436.003 717.998 434.796 716.616 434.796C715.235 434.624 714.026 435.831 714.026 437.383Z" fill="#4D4D4D"/>
<path d="M596.23 454.627C596.23 458.938 599.857 462.56 604.175 462.56C608.493 462.56 612.121 458.938 612.121 454.627C612.121 450.316 608.666 446.694 604.175 446.694C599.857 446.694 596.23 450.316 596.23 454.627Z" fill="#333333"/>
<path d="M598.994 447.902C598.994 450.833 601.239 453.248 604.175 453.248C607.112 453.248 609.357 450.833 609.357 447.902C609.357 444.97 607.112 442.556 604.175 442.556C601.412 442.556 598.994 444.97 598.994 447.902Z" fill="#333333"/>
<path d="M599.685 448.419C599.685 450.316 601.239 451.868 603.139 451.868C605.039 451.868 606.594 450.316 606.594 448.419C606.594 446.522 605.039 444.97 603.139 444.97C601.239 444.97 599.685 446.522 599.685 448.419Z" fill="#4D4D4D"/>
<path d="M606.939 460.49C607.803 468.768 615.23 474.631 623.347 473.769C631.638 472.906 637.511 465.491 636.647 457.386C635.783 449.109 628.356 443.246 620.239 444.108C612.121 444.97 606.075 452.213 606.939 460.49Z" fill="#333333"/>
<path d="M610.739 447.212C611.257 452.73 616.093 456.869 621.62 456.352C626.975 455.834 630.947 450.834 630.429 445.315C629.911 439.797 625.075 435.658 619.548 436.176C614.021 436.693 610.221 441.694 610.739 447.212Z" fill="#333333"/>
<path d="M612.121 448.247C612.466 451.868 615.748 454.455 619.202 454.11C622.829 453.765 625.42 450.489 625.075 447.04C624.729 443.418 621.448 440.832 617.993 441.177C614.366 441.521 611.775 444.798 612.121 448.247Z" fill="#4D4D4D"/>
<path d="M528.697 453.248C528.697 460.835 534.742 466.871 542.342 466.871C549.942 466.871 555.987 460.835 555.987 453.248C555.987 445.66 549.942 439.625 542.342 439.625C534.915 439.625 528.697 445.66 528.697 453.248Z" fill="#333333"/>
<path d="M524.033 466.87C524.033 477.045 532.324 485.15 542.342 485.15C552.532 485.15 560.65 476.872 560.65 466.87C560.65 456.696 552.36 448.591 542.342 448.591C532.324 448.591 524.033 456.869 524.033 466.87Z" fill="#333333"/>
<path d="M533.533 441.521C533.533 446.695 537.506 450.833 542.514 450.833C547.523 450.833 551.496 446.695 551.496 441.521C551.496 436.348 547.523 432.209 542.514 432.209C537.506 432.382 533.533 436.52 533.533 441.521Z" fill="#333333"/>
<path d="M530.769 453.248C530.769 457.559 534.224 461.18 538.715 461.18C543.033 461.18 546.66 457.731 546.66 453.248C546.66 448.937 543.205 445.315 538.715 445.315C534.397 445.488 530.769 448.937 530.769 453.248Z" fill="#4D4D4D"/>
<path d="M534.742 442.728C534.742 446.005 537.333 448.764 540.787 448.764C544.069 448.764 546.832 446.177 546.832 442.728C546.832 439.452 544.242 436.865 540.787 436.865C537.333 436.693 534.742 439.452 534.742 442.728Z" fill="#4D4D4D"/>
<path d="M558.923 464.629C558.923 474.286 566.868 482.218 576.54 482.218C586.213 482.218 594.158 474.286 594.158 464.629C594.158 454.972 586.213 447.039 576.54 447.039C566.868 447.039 558.923 454.799 558.923 464.629Z" fill="#333333"/>
<path d="M564.968 449.454C564.968 456.006 570.15 461.352 576.54 461.352C582.931 461.352 588.113 456.006 588.113 449.454C588.113 442.901 582.931 437.555 576.54 437.555C570.15 437.555 564.968 442.901 564.968 449.454Z" fill="#333333"/>
<path d="M566.523 451.006C566.523 455.317 569.977 458.593 574.295 458.593C578.613 458.593 582.068 455.144 582.068 451.006C582.068 446.695 578.613 443.246 574.295 443.246C569.977 443.246 566.523 446.695 566.523 451.006Z" fill="#4D4D4D"/>
<path d="M516.261 451.523C516.261 453.592 517.815 455.144 519.715 455.144C521.615 455.144 523.17 453.592 523.17 451.523C523.17 449.454 521.615 447.902 519.715 447.902C517.815 447.902 516.261 449.454 516.261 451.523Z" fill="#333333"/>
<path d="M441.991 447.212C441.991 453.937 447.346 459.283 454.082 459.283C460.818 459.283 466.172 453.937 466.172 447.212C466.172 440.487 460.818 435.141 454.082 435.141C447.346 435.141 441.991 440.487 441.991 447.212Z" fill="#333333"/>
<path d="M437.846 459.283C437.846 468.251 445.1 475.493 454.082 475.493C463.063 475.493 470.317 468.251 470.317 459.283C470.317 450.316 463.063 443.074 454.082 443.074C445.1 443.074 437.846 450.316 437.846 459.283Z" fill="#333333"/>
<path d="M446.136 436.866C446.136 441.349 449.764 445.143 454.082 445.143C458.4 445.143 462.027 441.522 462.027 436.866C462.027 432.382 458.4 428.588 454.082 428.588C449.764 428.588 446.136 432.382 446.136 436.866Z" fill="#333333"/>
<path d="M443.891 447.212C443.891 451.006 447 454.11 450.8 454.11C454.6 454.11 457.709 451.006 457.709 447.212C457.709 443.418 454.6 440.314 450.8 440.314C447 440.314 443.891 443.418 443.891 447.212Z" fill="#4D4D4D"/>
<path d="M447.173 437.9C447.173 440.832 449.591 443.246 452.527 443.246C455.463 443.246 457.881 440.832 457.881 437.9C457.881 434.969 455.463 432.555 452.527 432.555C449.591 432.555 447.173 434.969 447.173 437.9Z" fill="#4D4D4D"/>
<path d="M396.911 462.387C396.911 471.354 404.165 478.597 413.147 478.597C422.128 478.597 429.383 471.354 429.383 462.387C429.383 453.42 422.128 446.177 413.147 446.177C404.165 446.35 396.911 453.593 396.911 462.387Z" fill="#333333"/>
<path d="M402.611 448.592C402.611 454.627 407.447 459.628 413.147 459.628C419.02 459.628 423.856 454.8 423.856 448.592C423.856 442.556 419.02 437.728 413.147 437.728C407.275 437.728 402.611 442.556 402.611 448.592Z" fill="#333333"/>
<path d="M403.993 449.971C403.993 453.938 407.102 457.042 411.074 457.042C415.047 457.042 418.156 453.938 418.156 449.971C418.156 446.005 415.047 442.901 411.074 442.901C407.102 442.901 403.993 446.005 403.993 449.971Z" fill="#4D4D4D"/>
<path d="M132.649 468.94C132.649 483.77 144.567 495.669 159.421 495.669C174.275 495.669 186.193 483.77 186.193 468.94C186.193 454.11 174.275 442.211 159.421 442.211C144.567 442.211 132.649 454.282 132.649 468.94Z" fill="#333333"/>
<path d="M136.622 461.525C136.622 469.975 143.531 476.873 151.994 476.873C160.457 476.873 167.366 469.975 167.366 461.525C167.366 453.075 160.457 446.178 151.994 446.178C143.531 446.178 136.622 453.075 136.622 461.525Z" fill="#4D4D4D"/>
<path d="M98.2778 457.386C98.2778 469.802 108.468 479.977 120.904 479.977C133.34 479.977 143.531 469.802 143.531 457.386C143.531 444.97 133.34 434.796 120.904 434.796C108.296 434.796 98.2778 444.798 98.2778 457.386Z" fill="#333333"/>
<path d="M101.732 451.006C101.732 458.249 107.605 463.939 114.686 463.939C121.941 463.939 127.64 458.076 127.64 451.006C127.64 443.936 121.768 438.073 114.686 438.073C107.605 438.073 101.732 443.936 101.732 451.006Z" fill="#4D4D4D"/>
<path d="M155.966 461.008C155.966 473.424 166.157 483.598 178.593 483.598C191.029 483.598 201.219 473.424 201.219 461.008C201.219 448.592 191.029 438.417 178.593 438.417C165.984 438.417 155.966 448.419 155.966 461.008Z" fill="#333333"/>
<path d="M159.421 454.627C159.421 461.87 165.293 467.56 172.375 467.56C179.456 467.56 185.329 461.697 185.329 454.627C185.329 447.385 179.456 441.694 172.375 441.694C165.293 441.694 159.421 447.385 159.421 454.627Z" fill="#4D4D4D"/>
<path d="M225.745 466.181C225.745 478.597 235.936 488.771 248.372 488.771C260.808 488.771 270.998 478.597 270.998 466.181C270.998 453.765 260.808 443.591 248.372 443.591C235.763 443.591 225.745 453.765 225.745 466.181Z" fill="#333333"/>
<path d="M229.2 459.801C229.2 467.044 235.072 472.734 242.154 472.734C249.408 472.734 255.108 466.871 255.108 459.801C255.108 452.558 249.235 446.868 242.154 446.868C235.072 446.868 229.2 452.731 229.2 459.801Z" fill="#4D4D4D"/>
<path d="M253.035 462.387C253.035 474.803 263.226 484.978 275.662 484.978C288.098 484.978 298.288 474.803 298.288 462.387C298.288 449.971 288.098 439.797 275.662 439.797C263.226 439.797 253.035 449.799 253.035 462.387Z" fill="#333333"/>
<path d="M256.49 456.007C256.49 463.25 262.362 468.94 269.444 468.94C276.698 468.94 282.398 463.077 282.398 456.007C282.398 448.764 276.525 443.074 269.444 443.074C262.362 443.074 256.49 448.764 256.49 456.007Z" fill="#4D4D4D"/>
<path d="M235.418 458.766C235.418 466.008 241.29 471.699 248.372 471.699C255.626 471.699 261.326 465.836 261.326 458.766C261.326 451.523 255.453 445.832 248.372 445.832C241.118 445.832 235.418 451.695 235.418 458.766Z" fill="#4D4D4D"/>
<path d="M331.968 459.8C331.968 467.905 338.532 474.63 346.822 474.63C354.94 474.63 361.676 468.078 361.676 459.8C361.676 451.695 355.113 444.97 346.822 444.97C338.532 445.142 331.968 451.695 331.968 459.8Z" fill="#333333"/>
<path d="M334.214 455.662C334.214 460.318 338.014 464.111 342.677 464.111C347.34 464.111 351.14 460.318 351.14 455.662C351.14 451.006 347.34 447.212 342.677 447.212C338.014 447.212 334.214 451.006 334.214 455.662Z" fill="#4D4D4D"/>
<path d="M720.071 448.074C720.071 454.972 725.598 460.49 732.507 460.49C739.416 460.49 744.943 454.972 744.943 448.074C744.943 441.176 739.416 435.658 732.507 435.658C725.771 435.486 720.071 441.176 720.071 448.074Z" fill="#333333"/>
<path d="M715.926 460.49C715.926 469.802 723.353 477.217 732.68 477.217C742.006 477.217 749.433 469.802 749.433 460.49C749.433 451.178 742.006 443.763 732.68 443.763C723.353 443.763 715.926 451.178 715.926 460.49Z" fill="#333333"/>
<path d="M724.389 437.383C724.389 442.039 728.016 445.832 732.68 445.832C737.17 445.832 740.97 442.039 740.97 437.383C740.97 432.727 737.343 428.933 732.68 428.933C728.016 428.933 724.389 432.727 724.389 437.383Z" fill="#333333"/>
<path d="M721.971 448.074C721.971 452.04 725.253 455.317 729.225 455.317C733.198 455.317 736.479 452.04 736.479 448.074C736.479 444.108 733.198 440.831 729.225 440.831C725.253 440.831 721.971 444.108 721.971 448.074Z" fill="#4D4D4D"/>
<path d="M725.425 438.417C725.425 441.349 727.843 443.936 730.952 443.936C733.889 443.936 736.479 441.521 736.479 438.417C736.479 435.486 734.061 432.899 730.952 432.899C728.016 432.899 725.425 435.313 725.425 438.417Z" fill="#4D4D4D"/>
<path d="M661.173 452.903C661.173 458.421 665.664 462.905 671.191 462.905C676.718 462.905 681.209 458.421 681.209 452.903C681.209 447.385 676.718 442.901 671.191 442.901C665.664 442.901 661.173 447.385 661.173 452.903Z" fill="#333333"/>
<path d="M664.628 444.281C664.628 448.075 667.564 451.179 671.191 451.179C674.818 451.179 677.755 448.075 677.755 444.281C677.755 440.487 674.818 437.383 671.191 437.383C667.564 437.556 664.628 440.487 664.628 444.281Z" fill="#333333"/>
<path d="M662.728 452.903C662.728 456.179 665.319 458.766 668.6 458.766C671.882 458.766 674.473 456.179 674.473 452.903C674.473 449.799 671.882 447.212 668.6 447.212C665.319 447.04 662.728 449.627 662.728 452.903Z" fill="#4D4D4D"/>
<path d="M665.491 445.143C665.491 447.557 667.391 449.454 669.809 449.454C672.227 449.454 674.127 447.557 674.127 445.143C674.127 442.729 672.227 440.832 669.809 440.832C667.391 440.659 665.491 442.729 665.491 445.143Z" fill="#4D4D4D"/>
</svg>
