<svg width="334" height="95" viewBox="0 0 334 95" fill="none" xmlns="http://www.w3.org/2000/svg">
<g filter="url(#filter0_d)">
<rect x="15" y="15.8726" width="293.753" height="54" fill="#E3B873"/>
</g>
<path d="M84.0973 48.9429V48.6879L85.2873 48.3479V45.7979H80.4423L80.1023 45.2879L86.4773 36.8729H88.0923V45.0329H89.8773V45.7979H88.0923V48.3479L89.2823 48.6879V48.9429H84.0973ZM81.0373 45.0329H85.2873V39.4229L81.0373 45.0329ZM95.6586 49.1979C94.7406 49.1979 93.9076 48.9542 93.1596 48.4669C92.4116 47.9795 91.8166 47.2712 91.3746 46.3419C90.944 45.4012 90.7286 44.2849 90.7286 42.9929C90.7286 41.7009 90.944 40.5902 91.3746 39.6609C91.8166 38.7202 92.4116 38.0062 93.1596 37.5189C93.9076 37.0315 94.7406 36.7879 95.6586 36.7879C96.5766 36.7879 97.4096 37.0315 98.1576 37.5189C98.9056 38.0062 99.495 38.7202 99.9256 39.6609C100.368 40.5902 100.589 41.7009 100.589 42.9929C100.589 44.2849 100.368 45.4012 99.9256 46.3419C99.495 47.2712 98.9056 47.9795 98.1576 48.4669C97.4096 48.9542 96.5766 49.1979 95.6586 49.1979ZM95.6586 48.8579C96.962 48.8579 97.6136 46.9029 97.6136 42.9929C97.6136 39.0829 96.962 37.1279 95.6586 37.1279C94.3553 37.1279 93.7036 39.0829 93.7036 42.9929C93.7036 46.9029 94.3553 48.8579 95.6586 48.8579ZM108.497 39.1679V48.1779L109.857 48.6879V48.9429H106.627V48.6879L107.987 48.1779V37.5529L106.967 37.2979V37.0429H109.092C109.681 37.0429 110.146 37.1675 110.486 37.4169C110.837 37.6549 111.138 38.0119 111.387 38.4879L115.093 45.5769L117.932 38.4879C118.125 37.9892 118.385 37.6265 118.714 37.3999C119.043 37.1619 119.547 37.0429 120.227 37.0429H122.012V37.2979L120.992 37.5529V48.4329L122.012 48.6879V48.9429H117.167V48.6879L118.187 48.4329V39.1679L114.192 49.1129H113.682L108.497 39.1679ZM123.378 48.1779C123.378 47.5092 123.508 46.9029 123.769 46.3589C124.041 45.8035 124.37 45.3219 124.755 44.9139C125.14 44.5059 125.645 44.0242 126.268 43.4689C126.846 42.9589 127.299 42.5339 127.628 42.1939C127.957 41.8425 128.234 41.4515 128.461 41.0209C128.688 40.5789 128.801 40.1029 128.801 39.5929C128.801 38.8449 128.62 38.2612 128.257 37.8419C127.894 37.4225 127.424 37.2129 126.846 37.2129C126.517 37.2129 126.183 37.2582 125.843 37.3489L125.486 37.4679V40.1879L125.265 40.2389C125.084 40.2615 124.931 40.2729 124.806 40.2729C124.421 40.2729 124.109 40.1595 123.871 39.9329C123.644 39.6949 123.531 39.3832 123.531 38.9979C123.531 38.6352 123.667 38.2839 123.939 37.9439C124.222 37.6039 124.636 37.3262 125.18 37.1109C125.735 36.8955 126.404 36.7879 127.186 36.7879C128.716 36.7879 129.849 37.0939 130.586 37.7059C131.323 38.3179 131.691 39.1735 131.691 40.2729C131.691 40.9642 131.51 41.5592 131.147 42.0579C130.796 42.5565 130.359 42.9702 129.838 43.2989C129.328 43.6275 128.642 44.0015 127.781 44.4209C127.056 44.7722 126.466 45.0839 126.013 45.3559C125.571 45.6165 125.157 45.9339 124.772 46.3079C124.398 46.6819 124.132 47.1069 123.973 47.5829H130.263C130.342 46.9709 130.535 46.4609 130.841 46.0529C130.966 45.8602 131.113 45.6902 131.283 45.5429H131.793V48.9429H123.378V48.1779Z" fill="white"/>
<path fill-rule="evenodd" clip-rule="evenodd" d="M35.2503 27.2544C35.2503 27.0435 35.4285 26.8726 35.6484 26.8726H64.3115C64.5314 26.8726 64.7096 27.0435 64.7096 27.2544V54.8765C64.7096 55.0874 64.5314 55.2584 64.3115 55.2584C64.0916 55.2584 63.9134 55.0874 63.9134 54.8765V27.6363H35.6484C35.4285 27.6363 35.2503 27.4653 35.2503 27.2544Z" fill="white" stroke="white" stroke-width="0.5" stroke-linecap="round" stroke-linejoin="round"/>
<path d="M35.6681 55.4348L35.7931 55.4348L35.7931 55.3098L35.7931 31.5511L37.419 33.177C37.622 33.38 37.9512 33.38 38.1543 33.177C38.3574 32.9739 38.3574 32.6447 38.1543 32.4417L35.6408 29.9282C35.4377 29.7251 35.1085 29.7251 34.9055 29.9282L32.392 32.4417C32.1889 32.6447 32.1889 32.9739 32.392 33.177C32.595 33.38 32.9243 33.38 33.1273 33.177L34.7532 31.5511L34.7532 55.3098L34.7532 55.4348L34.8782 55.4348L35.6681 55.4348Z" fill="white" stroke="white" stroke-width="0.25"/>
<path d="M34.7522 55.704V55.829H34.8772L58.7603 55.829L57.1262 57.4547C56.922 57.6578 56.922 57.9874 57.1262 58.1905C57.33 58.3932 57.6602 58.3932 57.864 58.1905L60.3906 55.677C60.5947 55.4739 60.5947 55.1443 60.3906 54.9412L57.864 52.4277C57.6602 52.2249 57.33 52.2249 57.1262 52.4277C56.922 52.6308 56.922 52.9604 57.1262 53.1635L58.7603 54.7891L34.8772 54.7891H34.7522V54.9141V55.704Z" fill="white" stroke="white" stroke-width="0.25"/>
<path fill-rule="evenodd" clip-rule="evenodd" d="M46.1624 26.9882C46.3167 27.1425 46.3167 27.3926 46.1624 27.5468L41.423 32.2863C41.2687 32.4405 41.0186 32.4405 40.8644 32.2863C40.7102 32.132 40.7102 31.882 40.8644 31.7277L45.6039 26.9882C45.7581 26.834 46.0082 26.834 46.1624 26.9882Z" fill="white" stroke="white" stroke-width="0.5" stroke-linecap="round" stroke-linejoin="round"/>
<path fill-rule="evenodd" clip-rule="evenodd" d="M64.4623 45.8149C64.6165 45.9692 64.6165 46.2192 64.4623 46.3735L60.1177 50.718C59.9635 50.8722 59.7134 50.8722 59.5592 50.718C59.4049 50.5638 59.4049 50.3137 59.5592 50.1594L63.9037 45.8149C64.0579 45.6607 64.308 45.6607 64.4623 45.8149Z" fill="white" stroke="white" stroke-width="0.5" stroke-linecap="round" stroke-linejoin="round"/>
<path fill-rule="evenodd" clip-rule="evenodd" d="M52.0851 26.9865C52.2403 27.1397 52.2419 27.3898 52.0886 27.545L41.8197 37.9456C41.6665 38.1008 41.4164 38.1024 41.2612 37.9491C41.106 37.7959 41.1044 37.5458 41.2576 37.3906L51.5265 26.99C51.6798 26.8348 51.9299 26.8332 52.0851 26.9865Z" fill="white" stroke="white" stroke-width="0.5" stroke-linecap="round" stroke-linejoin="round"/>
<path fill-rule="evenodd" clip-rule="evenodd" d="M64.5938 39.2317C64.7481 39.3859 64.7481 39.636 64.5938 39.7902L54.5882 49.7958C54.434 49.9501 54.1839 49.9501 54.0297 49.7958C53.8754 49.6416 53.8754 49.3915 54.0297 49.2373L64.0353 39.2317C64.1895 39.0775 64.4396 39.0775 64.5938 39.2317Z" fill="white" stroke="white" stroke-width="0.5" stroke-linecap="round" stroke-linejoin="round"/>
<path fill-rule="evenodd" clip-rule="evenodd" d="M58.4084 27.1222C58.5614 27.2776 58.5594 27.5277 58.4039 27.6807L41.9474 43.874C41.7919 44.027 41.5418 44.0249 41.3888 43.8695C41.2358 43.714 41.2379 43.4639 41.3933 43.3109L57.8499 27.1177C58.0054 26.9647 58.2554 26.9667 58.4084 27.1222Z" fill="white" stroke="white" stroke-width="0.5" stroke-linecap="round" stroke-linejoin="round"/>
<path fill-rule="evenodd" clip-rule="evenodd" d="M64.5939 33.0444C64.7482 33.1986 64.7482 33.4487 64.5939 33.6029L48.0057 50.1911C47.8515 50.3454 47.6014 50.3454 47.4472 50.1911C47.2929 50.0369 47.2929 49.7868 47.4472 49.6326L64.0354 33.0444C64.1896 32.8901 64.4397 32.8901 64.5939 33.0444Z" fill="white" stroke="white" stroke-width="0.5" stroke-linecap="round" stroke-linejoin="round"/>
<path fill-rule="evenodd" clip-rule="evenodd" d="M64.3306 27.1199C64.4849 27.2741 64.4849 27.5242 64.3306 27.6785L41.6864 50.3227C41.5321 50.4769 41.2821 50.4769 41.1278 50.3227C40.9736 50.1685 40.9736 49.9184 41.1278 49.7641L63.7721 27.1199C63.9263 26.9657 64.1764 26.9657 64.3306 27.1199Z" fill="white" stroke="white" stroke-width="0.5" stroke-linecap="round" stroke-linejoin="round"/>
<path d="M219.146 49.0112V48.7562L220.336 48.4162V45.8662H215.491L215.151 45.3562L221.526 36.9412H223.141V45.1012H224.926V45.8662H223.141V48.4162L224.331 48.7562V49.0112H219.146ZM216.086 45.1012H220.336V39.4912L216.086 45.1012ZM230.691 49.2662C229.263 49.2662 228.181 48.9829 227.444 48.4162C226.719 47.8496 226.356 47.1129 226.356 46.2062C226.356 45.5829 226.628 44.9822 227.172 44.4042C227.716 43.8149 228.379 43.3956 229.161 43.1462C228.413 42.7269 227.841 42.2679 227.444 41.7692C227.059 41.2592 226.866 40.6416 226.866 39.9162C226.866 39.0096 227.229 38.2729 227.954 37.7062C228.691 37.1396 229.773 36.8562 231.201 36.8562C231.915 36.8562 232.538 36.9866 233.071 37.2472C233.615 37.5079 234.034 37.8479 234.329 38.2672C234.624 38.6866 234.771 39.1229 234.771 39.5762C234.771 40.1089 234.539 40.6246 234.074 41.1232C233.621 41.6219 233.088 41.9562 232.476 42.1262C233.507 42.5796 234.289 43.1179 234.822 43.7412C235.355 44.3646 235.621 45.1296 235.621 46.0362C235.621 46.6256 235.44 47.1639 235.077 47.6512C234.714 48.1386 234.165 48.5296 233.428 48.8242C232.691 49.1189 231.779 49.2662 230.691 49.2662ZM231.966 41.7862C232.397 41.5936 232.742 41.3159 233.003 40.9532C233.275 40.5906 233.411 40.1316 233.411 39.5762C233.411 39.1682 233.309 38.7886 233.105 38.4372C232.912 38.0859 232.657 37.8082 232.34 37.6042C232.034 37.3889 231.711 37.2812 231.371 37.2812C230.884 37.2812 230.476 37.4739 230.147 37.8592C229.83 38.2332 229.671 38.7489 229.671 39.4062C229.671 40.3129 230.436 41.1062 231.966 41.7862ZM230.521 48.8412C231.246 48.8412 231.807 48.6429 232.204 48.2462C232.612 47.8382 232.816 47.2716 232.816 46.5462C232.816 46.0022 232.544 45.4526 232 44.8972C231.456 44.3419 230.736 43.8716 229.841 43.4862C229.206 43.7129 228.708 44.0529 228.345 44.5062C227.982 44.9482 227.801 45.5149 227.801 46.2062C227.801 46.6822 227.92 47.1242 228.158 47.5322C228.407 47.9289 228.736 48.2462 229.144 48.4842C229.563 48.7222 230.022 48.8412 230.521 48.8412ZM241.75 48.7562L242.77 48.5012V37.6212L241.75 37.3662V37.1112H246.085C248.113 37.1112 249.666 37.6326 250.743 38.6752C251.831 39.7179 252.375 41.1799 252.375 43.0612C252.375 44.9426 251.831 46.4046 250.743 47.4472C249.666 48.4899 248.113 49.0112 246.085 49.0112H241.75V48.7562ZM246.085 48.5862C247.139 48.5862 247.955 48.1612 248.533 47.3112C249.111 46.4499 249.4 45.0332 249.4 43.0612C249.4 41.0892 249.111 39.6782 248.533 38.8282C247.955 37.9669 247.139 37.5362 246.085 37.5362H245.575V48.5862H246.085ZM252.197 48.7562L253.557 48.2462L258.232 36.9412H258.742L263.587 48.5012L264.437 48.7562V49.0112H262.397C261.808 49.0112 261.326 48.8809 260.952 48.6202C260.578 48.3482 260.301 47.9969 260.119 47.5662L259.252 45.5262H255.189L254.067 48.2462L255.342 48.7562V49.0112H252.197V48.7562ZM255.359 45.1012H259.082L257.212 40.6302L255.359 45.1012ZM266.212 48.7562L267.232 48.5012V44.5912L263.747 37.6212L262.897 37.3662V37.1112H265.022C265.611 37.1112 266.081 37.2359 266.433 37.4852C266.795 37.7346 267.09 38.0916 267.317 38.5562L269.833 43.5712L272.417 37.8762L271.142 37.3662V37.1112H274.372V37.3662L273.012 37.8762L270.037 44.4212V48.5012L271.057 48.7562V49.0112H266.212V48.7562ZM278.703 49.2662C277.898 49.2662 277.144 49.0849 276.442 48.7222C276.124 48.5636 275.858 48.3766 275.643 48.1612C275.484 48.4219 275.286 48.6542 275.048 48.8582C274.844 49.0056 274.73 49.0849 274.708 49.0962H274.283V45.8662H274.963C275.133 46.4216 275.371 46.9202 275.677 47.3622C276.368 48.3482 277.263 48.8412 278.363 48.8412C279.009 48.8412 279.524 48.6486 279.91 48.2632C280.295 47.8779 280.488 47.3622 280.488 46.7162C280.488 46.3422 280.374 46.0079 280.148 45.7132C279.932 45.4186 279.66 45.1579 279.332 44.9312C279.003 44.7046 278.544 44.4212 277.955 44.0812C277.207 43.6619 276.6 43.2822 276.136 42.9422C275.671 42.6022 275.274 42.1772 274.946 41.6672C274.617 41.1459 274.453 40.5339 274.453 39.8312C274.453 39.2759 274.606 38.7772 274.912 38.3352C275.229 37.8819 275.699 37.5249 276.323 37.2642C276.946 36.9922 277.711 36.8562 278.618 36.8562C279.275 36.8562 279.932 37.0432 280.59 37.4172C280.839 37.5532 281.088 37.7346 281.338 37.9612C281.53 37.6666 281.729 37.4342 281.933 37.2642C282.137 37.1169 282.25 37.0376 282.273 37.0262H282.698V40.2562H282.018C281.87 39.7122 281.649 39.2192 281.355 38.7772C281.083 38.3466 280.743 37.9896 280.335 37.7062C279.938 37.4229 279.479 37.2812 278.958 37.2812C278.516 37.2812 278.136 37.4569 277.819 37.8082C277.501 38.1596 277.343 38.6072 277.343 39.1512C277.343 39.5706 277.462 39.9502 277.7 40.2902C277.949 40.6189 278.249 40.9079 278.601 41.1572C278.963 41.4066 279.451 41.7069 280.063 42.0582C280.777 42.4662 281.355 42.8289 281.797 43.1462C282.239 43.4636 282.613 43.8602 282.919 44.3362C283.225 44.8009 283.378 45.3392 283.378 45.9512C283.378 46.5632 283.202 47.1242 282.851 47.6342C282.499 48.1329 281.972 48.5296 281.27 48.8242C280.567 49.1189 279.711 49.2662 278.703 49.2662Z" fill="white"/>
<path d="M150.09 69.9075L150.09 15.8726" stroke="white" stroke-width="0.75"/>
<path d="M191.6 29.0722C191.337 27.819 190.196 26.8726 188.831 26.8726C188.519 26.8726 188.266 27.1184 188.266 27.4225C188.266 27.7266 188.519 27.9724 188.831 27.9724C189.766 27.9724 190.527 28.7126 190.527 29.6221C190.527 30.5317 189.766 31.2719 188.831 31.2719C188.519 31.2719 188.266 31.5177 188.266 31.8218C188.266 32.1259 188.519 32.3717 188.831 32.3717C190.196 32.3717 191.337 31.4253 191.6 30.1721H199.005V35.1213H168.484V30.1721H176.397H178.093C178.405 30.1721 178.658 29.9262 178.658 29.6221C178.658 29.318 178.405 29.0722 178.093 29.0722H177.066C177.3 28.4332 177.922 27.9724 178.658 27.9724C179.593 27.9724 180.353 28.7126 180.353 29.6221C180.353 30.5317 179.593 31.2719 178.658 31.2719C178.346 31.2719 178.093 31.5177 178.093 31.8218C178.093 32.1259 178.346 32.3717 178.658 32.3717C180.216 32.3717 181.484 31.1383 181.484 29.6221C181.484 28.106 180.216 26.8726 178.658 26.8726C177.293 26.8726 176.152 27.819 175.889 29.0722H167.354V36.2211V58.2178H200.135V36.2211V29.0722H191.6ZM199.005 57.1179H168.484V36.2211H199.005V57.1179Z" fill="white"/>
<path d="M182.049 27.9724C182.984 27.9724 183.745 28.7126 183.745 29.6221C183.745 30.5317 182.984 31.2719 182.049 31.2719C181.737 31.2719 181.484 31.5177 181.484 31.8218C181.484 32.1259 181.737 32.3717 182.049 32.3717C183.607 32.3717 184.875 31.1383 184.875 29.6221C184.875 28.106 183.607 26.8726 182.049 26.8726C181.737 26.8726 181.484 27.1184 181.484 27.4225C181.484 27.7266 181.737 27.9724 182.049 27.9724Z" fill="white"/>
<path d="M185.44 27.9724C186.375 27.9724 187.136 28.7126 187.136 29.6221C187.136 30.5317 186.375 31.2719 185.44 31.2719C185.128 31.2719 184.875 31.5177 184.875 31.8218C184.875 32.1259 185.128 32.3717 185.44 32.3717C186.998 32.3717 188.266 31.1383 188.266 29.6221C188.266 28.106 186.998 26.8726 185.44 26.8726C185.128 26.8726 184.875 27.1184 184.875 27.4225C184.875 27.7266 185.128 27.9724 185.44 27.9724Z" fill="white"/>
<path d="M172.441 40.6201H184.875C185.187 40.6201 185.44 40.3742 185.44 40.0701C185.44 39.766 185.187 39.5202 184.875 39.5202H172.441C172.129 39.5202 171.876 39.766 171.876 40.0701C171.876 40.3742 172.129 40.6201 172.441 40.6201Z" fill="white"/>
<path d="M195.048 48.3192H186.571C186.259 48.3192 186.005 48.565 186.005 48.8691C186.005 49.1732 186.259 49.419 186.571 49.419H195.048C195.36 49.419 195.614 49.1732 195.614 48.8691C195.614 48.565 195.36 48.3192 195.048 48.3192Z" fill="white"/>
<path d="M172.441 45.0198H178.093C178.405 45.0198 178.658 44.774 178.658 44.4699C178.658 44.1657 178.405 43.9199 178.093 43.9199H172.441C172.129 43.9199 171.876 44.1657 171.876 44.4699C171.876 44.774 172.129 45.0198 172.441 45.0198Z" fill="white"/>
<path d="M195.048 52.7185H189.397C189.085 52.7185 188.831 52.9643 188.831 53.2684C188.831 53.5725 189.085 53.8183 189.397 53.8183H195.048C195.36 53.8183 195.614 53.5725 195.614 53.2684C195.614 52.9643 195.36 52.7185 195.048 52.7185Z" fill="white"/>
<path d="M183.179 44.4699C183.179 44.774 183.433 45.0198 183.745 45.0198H192.222C192.534 45.0198 192.788 44.774 192.788 44.4699C192.788 44.1657 192.534 43.9199 192.222 43.9199H183.745C183.433 43.9199 183.179 44.1657 183.179 44.4699Z" fill="white"/>
<path d="M181.32 44.8605C181.422 44.7561 181.484 44.6131 181.484 44.4701C181.484 44.3266 181.422 44.1836 181.32 44.0797C181.111 43.8762 180.727 43.8762 180.517 44.0797C180.416 44.1836 180.354 44.3266 180.354 44.4701C180.354 44.6131 180.416 44.7561 180.517 44.8605C180.625 44.9645 180.772 45.02 180.919 45.02C181.066 45.02 181.213 44.9645 181.32 44.8605Z" fill="white"/>
<path d="M174.702 48.8691C174.702 49.1732 174.955 49.419 175.267 49.419H183.745C184.057 49.419 184.31 49.1732 184.31 48.8691C184.31 48.565 184.057 48.3192 183.745 48.3192H175.267C174.955 48.3192 174.702 48.565 174.702 48.8691Z" fill="white"/>
<path d="M172.441 49.4195C172.588 49.4195 172.735 49.359 172.842 49.26C172.944 49.1555 173.006 49.0126 173.006 48.8696C173.006 48.7261 172.944 48.5831 172.842 48.4846C172.633 48.2757 172.249 48.2757 172.04 48.4791C171.938 48.5831 171.876 48.7261 171.876 48.8696C171.876 49.0126 171.938 49.1555 172.04 49.26C172.147 49.359 172.288 49.4195 172.441 49.4195Z" fill="white"/>
<path d="M195.048 45.02C195.195 45.02 195.342 44.9645 195.45 44.8605C195.557 44.7561 195.614 44.6131 195.614 44.4701C195.614 44.3266 195.557 44.1836 195.45 44.0797C195.235 43.8762 194.856 43.8762 194.647 44.0797C194.545 44.1836 194.483 44.3266 194.483 44.4701C194.483 44.6131 194.545 44.7561 194.647 44.8605C194.755 44.9645 194.902 45.02 195.048 45.02Z" fill="white"/>
<path d="M186.571 52.7185H172.441C172.129 52.7185 171.876 52.9643 171.876 53.2684C171.876 53.5725 172.129 53.8183 172.441 53.8183H186.571C186.883 53.8183 187.136 53.5725 187.136 53.2684C187.136 52.9643 186.883 52.7185 186.571 52.7185Z" fill="white"/>
<defs>
<filter id="filter0_d" x="0" y="0.872559" width="333.753" height="94" filterUnits="userSpaceOnUse" color-interpolation-filters="sRGB">
<feFlood flood-opacity="0" result="BackgroundImageFix"/>
<feColorMatrix in="SourceAlpha" type="matrix" values="0 0 0 0 0 0 0 0 0 0 0 0 0 0 0 0 0 0 127 0"/>
<feOffset dx="5" dy="5"/>
<feGaussianBlur stdDeviation="10"/>
<feColorMatrix type="matrix" values="0 0 0 0 0.890196 0 0 0 0 0.721569 0 0 0 0 0.45098 0 0 0 0.5 0"/>
<feBlend mode="normal" in2="BackgroundImageFix" result="effect1_dropShadow"/>
<feBlend mode="normal" in="SourceGraphic" in2="effect1_dropShadow" result="shape"/>
</filter>
</defs>
</svg>
