<svg width="334" height="95" viewBox="0 0 334 95" fill="none" xmlns="http://www.w3.org/2000/svg">
<g filter="url(#filter0_d)">
<rect x="14.9999" y="15.8726" width="293.753" height="54" fill="#E3B873"/>
</g>
<path d="M84.7772 49.1984C84.1086 49.1984 83.5192 49.0907 83.0092 48.8754C82.5106 48.6487 82.1252 48.3654 81.8532 48.0254C81.5926 47.6854 81.4622 47.3397 81.4622 46.9884C81.4622 46.603 81.5756 46.297 81.8022 46.0704C82.0402 45.8324 82.3519 45.7134 82.7372 45.7134C82.8279 45.7134 82.9186 45.7247 83.0092 45.7474C83.0999 45.7587 83.1622 45.7644 83.1962 45.7644L83.4172 45.7984V48.5184L83.7402 48.6544C83.9442 48.7337 84.1766 48.7734 84.4372 48.7734C84.9926 48.7734 85.4459 48.626 85.7972 48.3314C86.1486 48.0367 86.4206 47.4927 86.6132 46.6994C86.8059 45.906 86.9022 44.784 86.9022 43.3334C86.8002 43.5034 86.6416 43.6734 86.4262 43.8434C85.9956 44.1834 85.5026 44.3534 84.9472 44.3534C84.1199 44.3534 83.3946 44.2004 82.7712 43.8944C82.1592 43.577 81.6889 43.1407 81.3602 42.5854C81.0316 42.03 80.8672 41.401 80.8672 40.6984C80.8672 39.4857 81.2412 38.5337 81.9892 37.8424C82.7486 37.1397 83.8196 36.7884 85.2022 36.7884C86.6302 36.7884 87.7522 37.2984 88.5682 38.3184C89.3842 39.3384 89.7922 40.8967 89.7922 42.9934C89.7922 45.0334 89.3446 46.5804 88.4492 47.6344C87.5652 48.677 86.3412 49.1984 84.7772 49.1984ZM85.2872 43.9284C85.7519 43.9284 86.1202 43.7017 86.3922 43.2484C86.6756 42.795 86.8172 42.0867 86.8172 41.1234C86.8172 39.684 86.6586 38.6584 86.3412 38.0464C86.0352 37.4344 85.6556 37.1284 85.2022 37.1284C84.9756 37.1284 84.7489 37.2417 84.5222 37.4684C84.3069 37.695 84.1256 38.0634 83.9782 38.5734C83.8309 39.0834 83.7572 39.735 83.7572 40.5284C83.7572 41.3217 83.8309 41.9734 83.9782 42.4834C84.1369 42.9934 84.3296 43.3617 84.5562 43.5884C84.7942 43.815 85.0379 43.9284 85.2872 43.9284ZM96.3392 49.1984C95.4212 49.1984 94.5882 48.9547 93.8402 48.4674C93.0922 47.98 92.4972 47.2717 92.0552 46.3424C91.6246 45.4017 91.4092 44.2854 91.4092 42.9934C91.4092 41.7014 91.6246 40.5907 92.0552 39.6614C92.4972 38.7207 93.0922 38.0067 93.8402 37.5194C94.5882 37.032 95.4212 36.7884 96.3392 36.7884C97.2572 36.7884 98.0902 37.032 98.8382 37.5194C99.5862 38.0067 100.176 38.7207 100.606 39.6614C101.048 40.5907 101.269 41.7014 101.269 42.9934C101.269 44.2854 101.048 45.4017 100.606 46.3424C100.176 47.2717 99.5862 47.98 98.8382 48.4674C98.0902 48.9547 97.2572 49.1984 96.3392 49.1984ZM96.3392 48.8584C97.6426 48.8584 98.2942 46.9034 98.2942 42.9934C98.2942 39.0834 97.6426 37.1284 96.3392 37.1284C95.0359 37.1284 94.3842 39.0834 94.3842 42.9934C94.3842 46.9034 95.0359 48.8584 96.3392 48.8584ZM109.178 39.1684V48.1784L110.538 48.6884V48.9434H107.308V48.6884L108.668 48.1784V37.5534L107.478 37.2984V37.0434H109.773C110.362 37.0434 110.827 37.168 111.167 37.4174C111.518 37.6554 111.818 38.0124 112.068 38.4884L115.774 45.5774L118.613 38.4884C118.805 37.9897 119.066 37.627 119.395 37.4004C119.723 37.1624 120.228 37.0434 120.908 37.0434H122.693V37.2984L121.673 37.5534V48.4334L122.693 48.6884V48.9434H117.848V48.6884L118.868 48.4334V39.1684L114.873 49.1134H114.363L109.178 39.1684ZM124.059 48.1784C124.059 47.5097 124.189 46.9034 124.45 46.3594C124.722 45.804 125.05 45.3224 125.436 44.9144C125.821 44.5064 126.325 44.0247 126.949 43.4694C127.527 42.9594 127.98 42.5344 128.309 42.1944C128.637 41.843 128.915 41.452 129.142 41.0214C129.368 40.5794 129.482 40.1034 129.482 39.5934C129.482 38.8454 129.3 38.2617 128.938 37.8424C128.575 37.423 128.105 37.2134 127.527 37.2134C127.198 37.2134 126.864 37.2587 126.524 37.3494L126.167 37.4684V40.1884L125.946 40.2394C125.764 40.262 125.611 40.2734 125.487 40.2734C125.101 40.2734 124.79 40.16 124.552 39.9334C124.325 39.6954 124.212 39.3837 124.212 38.9984C124.212 38.6357 124.348 38.2844 124.62 37.9444C124.903 37.6044 125.317 37.3267 125.861 37.1114C126.416 36.896 127.085 36.7884 127.867 36.7884C129.397 36.7884 130.53 37.0944 131.267 37.7064C132.003 38.3184 132.372 39.174 132.372 40.2734C132.372 40.9647 132.19 41.5597 131.828 42.0584C131.476 42.557 131.04 42.9707 130.519 43.2994C130.009 43.628 129.323 44.002 128.462 44.4214C127.736 44.7727 127.147 45.0844 126.694 45.3564C126.252 45.617 125.838 45.9344 125.453 46.3084C125.079 46.6824 124.812 47.1074 124.654 47.5834H130.944C131.023 46.9714 131.216 46.4614 131.522 46.0534C131.646 45.8607 131.794 45.6907 131.964 45.5434H132.474V48.9434H124.059V48.1784Z" fill="white"/>
<path fill-rule="evenodd" clip-rule="evenodd" d="M35.2502 27.2544C35.2502 27.0435 35.4285 26.8726 35.6483 26.8726H64.3115C64.5313 26.8726 64.7096 27.0435 64.7096 27.2544V54.8765C64.7096 55.0874 64.5313 55.2584 64.3115 55.2584C64.0916 55.2584 63.9134 55.0874 63.9134 54.8765V27.6363H35.6483C35.4285 27.6363 35.2502 27.4653 35.2502 27.2544Z" fill="white" stroke="white" stroke-width="0.5"/>
<path d="M35.668 55.4344L35.793 55.4344L35.793 55.3094L35.793 31.5507L37.4189 33.1766C37.622 33.3796 37.9512 33.3796 38.1542 33.1766C38.3573 32.9735 38.3573 32.6443 38.1542 32.4413L35.6407 29.9278C35.4377 29.7247 35.1085 29.7247 34.9054 29.9278L32.3919 32.4413C32.1888 32.6443 32.1888 32.9735 32.3919 33.1766C32.595 33.3796 32.9242 33.3796 33.1272 33.1766L34.7531 31.5507L34.7531 55.3094L34.7531 55.4344L34.8781 55.4344L35.668 55.4344Z" fill="white" stroke="white" stroke-width="0.25"/>
<path d="M34.7521 55.7045V55.8295H34.8771L58.7603 55.8295L57.1261 57.4551C56.922 57.6582 56.922 57.9878 57.1261 58.1909C57.3299 58.3937 57.6601 58.3937 57.8639 58.1909L60.3905 55.6774C60.5947 55.4743 60.5947 55.1447 60.3905 54.9416L57.8639 52.4281C57.6601 52.2254 57.3299 52.2254 57.1261 52.4281C56.922 52.6312 56.922 52.9608 57.1261 53.1639L58.7603 54.7896L34.8771 54.7896H34.7521V54.9146V55.7045Z" fill="white" stroke="white" stroke-width="0.25"/>
<path fill-rule="evenodd" clip-rule="evenodd" d="M46.1624 26.9882C46.3167 27.1425 46.3167 27.3926 46.1624 27.5468L41.4229 32.2863C41.2687 32.4405 41.0186 32.4405 40.8644 32.2863C40.7101 32.1321 40.7101 31.882 40.8644 31.7277L45.6039 26.9882C45.7581 26.834 46.0082 26.834 46.1624 26.9882Z" fill="white" stroke="white" stroke-width="0.5" stroke-linecap="round" stroke-linejoin="round"/>
<path fill-rule="evenodd" clip-rule="evenodd" d="M64.4622 45.8145C64.6164 45.9688 64.6164 46.2189 64.4622 46.3731L60.1177 50.7176C59.9634 50.8719 59.7133 50.8719 59.5591 50.7176C59.4049 50.5634 59.4049 50.3133 59.5591 50.1591L63.9036 45.8145C64.0579 45.6603 64.308 45.6603 64.4622 45.8145Z" fill="white" stroke="white" stroke-width="0.5" stroke-linecap="round" stroke-linejoin="round"/>
<path fill-rule="evenodd" clip-rule="evenodd" d="M52.085 26.9865C52.2402 27.1397 52.2418 27.3898 52.0885 27.545L41.8196 37.9456C41.6664 38.1008 41.4163 38.1024 41.2611 37.9491C41.1059 37.7959 41.1043 37.5458 41.2575 37.3906L51.5264 26.99C51.6797 26.8348 51.9298 26.8332 52.085 26.9865Z" fill="white" stroke="white" stroke-width="0.5" stroke-linecap="round" stroke-linejoin="round"/>
<path fill-rule="evenodd" clip-rule="evenodd" d="M64.5938 39.2315C64.748 39.3857 64.748 39.6358 64.5938 39.79L54.5882 49.7956C54.434 49.9499 54.1839 49.9499 54.0296 49.7956C53.8754 49.6414 53.8754 49.3913 54.0296 49.2371L64.0352 39.2315C64.1895 39.0772 64.4396 39.0772 64.5938 39.2315Z" fill="white" stroke="white" stroke-width="0.5" stroke-linecap="round" stroke-linejoin="round"/>
<path fill-rule="evenodd" clip-rule="evenodd" d="M58.4084 27.1216C58.5614 27.277 58.5594 27.5271 58.4039 27.6801L41.9473 43.8734C41.7918 44.0264 41.5417 44.0244 41.3888 43.8689C41.2358 43.7134 41.2378 43.4633 41.3933 43.3103L57.8498 27.1171C58.0053 26.9641 58.2554 26.9661 58.4084 27.1216Z" fill="white" stroke="white" stroke-width="0.5" stroke-linecap="round" stroke-linejoin="round"/>
<path fill-rule="evenodd" clip-rule="evenodd" d="M64.5939 33.0441C64.7481 33.1983 64.7481 33.4484 64.5939 33.6026L48.0056 50.1909C47.8514 50.3451 47.6013 50.3451 47.4471 50.1909C47.2928 50.0366 47.2928 49.7866 47.4471 49.6323L64.0353 33.0441C64.1896 32.8898 64.4396 32.8898 64.5939 33.0441Z" fill="white" stroke="white" stroke-width="0.5" stroke-linecap="round" stroke-linejoin="round"/>
<path fill-rule="evenodd" clip-rule="evenodd" d="M64.3306 27.1193C64.4848 27.2735 64.4848 27.5236 64.3306 27.6779L41.6863 50.3221C41.5321 50.4764 41.282 50.4764 41.1278 50.3221C40.9735 50.1679 40.9735 49.9178 41.1278 49.7636L63.772 27.1193C63.9263 26.9651 64.1763 26.9651 64.3306 27.1193Z" fill="white" stroke="white" stroke-width="0.5" stroke-linecap="round" stroke-linejoin="round"/>
<path d="M215.409 48.9434V48.6884L216.599 48.3484V39.0154L214.814 40.2734L214.474 39.8484L217.568 37.0434H219.404V48.3484L220.594 48.6884V48.9434H215.409ZM221.785 48.1784C221.785 47.5097 221.915 46.9034 222.176 46.3594C222.448 45.804 222.776 45.3224 223.162 44.9144C223.547 44.5064 224.051 44.0247 224.675 43.4694C225.253 42.9594 225.706 42.5344 226.035 42.1944C226.363 41.843 226.641 41.452 226.868 41.0214C227.094 40.5794 227.208 40.1034 227.208 39.5934C227.208 38.8454 227.026 38.2617 226.664 37.8424C226.301 37.423 225.831 37.2134 225.253 37.2134C224.924 37.2134 224.59 37.2587 224.25 37.3494L223.893 37.4684V40.1884L223.672 40.2394C223.49 40.262 223.337 40.2734 223.213 40.2734C222.827 40.2734 222.516 40.16 222.278 39.9334C222.051 39.6954 221.938 39.3837 221.938 38.9984C221.938 38.6357 222.074 38.2844 222.346 37.9444C222.629 37.6044 223.043 37.3267 223.587 37.1114C224.142 36.896 224.811 36.7884 225.593 36.7884C227.123 36.7884 228.256 37.0944 228.993 37.7064C229.729 38.3184 230.098 39.174 230.098 40.2734C230.098 40.9647 229.916 41.5597 229.554 42.0584C229.202 42.557 228.766 42.9707 228.245 43.2994C227.735 43.628 227.049 44.002 226.188 44.4214C225.462 44.7727 224.873 45.0844 224.42 45.3564C223.978 45.617 223.564 45.9344 223.179 46.3084C222.805 46.6824 222.538 47.1074 222.38 47.5834H228.67C228.749 46.9714 228.942 46.4614 229.248 46.0534C229.372 45.8607 229.52 45.6907 229.69 45.5434H230.2V48.9434H221.785V48.1784ZM236.068 49.1984C234.64 49.1984 233.558 48.915 232.821 48.3484C232.096 47.7817 231.733 47.045 231.733 46.1384C231.733 45.515 232.005 44.9144 232.549 44.3364C233.093 43.747 233.756 43.3277 234.538 43.0784C233.79 42.659 233.218 42.2 232.821 41.7014C232.436 41.1914 232.243 40.5737 232.243 39.8484C232.243 38.9417 232.606 38.205 233.331 37.6384C234.068 37.0717 235.15 36.7884 236.578 36.7884C237.292 36.7884 237.915 36.9187 238.448 37.1794C238.992 37.44 239.411 37.78 239.706 38.1994C240.001 38.6187 240.148 39.055 240.148 39.5084C240.148 40.041 239.916 40.5567 239.451 41.0554C238.998 41.554 238.465 41.8884 237.853 42.0584C238.884 42.5117 239.666 43.05 240.199 43.6734C240.732 44.2967 240.998 45.0617 240.998 45.9684C240.998 46.5577 240.817 47.096 240.454 47.5834C240.091 48.0707 239.542 48.4617 238.805 48.7564C238.068 49.051 237.156 49.1984 236.068 49.1984ZM237.343 41.7184C237.774 41.5257 238.119 41.248 238.38 40.8854C238.652 40.5227 238.788 40.0637 238.788 39.5084C238.788 39.1004 238.686 38.7207 238.482 38.3694C238.289 38.018 238.034 37.7404 237.717 37.5364C237.411 37.321 237.088 37.2134 236.748 37.2134C236.261 37.2134 235.853 37.406 235.524 37.7914C235.207 38.1654 235.048 38.681 235.048 39.3384C235.048 40.245 235.813 41.0384 237.343 41.7184ZM235.898 48.7734C236.623 48.7734 237.184 48.575 237.581 48.1784C237.989 47.7704 238.193 47.2037 238.193 46.4784C238.193 45.9344 237.921 45.3847 237.377 44.8294C236.833 44.274 236.113 43.8037 235.218 43.4184C234.583 43.645 234.085 43.985 233.722 44.4384C233.359 44.8804 233.178 45.447 233.178 46.1384C233.178 46.6144 233.297 47.0564 233.535 47.4644C233.784 47.861 234.113 48.1784 234.521 48.4164C234.94 48.6544 235.399 48.7734 235.898 48.7734ZM247.127 48.6884L248.147 48.4334V37.5534L247.127 37.2984V37.0434H251.462C253.49 37.0434 255.043 37.5647 256.12 38.6074C257.208 39.65 257.752 41.112 257.752 42.9934C257.752 44.8747 257.208 46.3367 256.12 47.3794C255.043 48.422 253.49 48.9434 251.462 48.9434H247.127V48.6884ZM251.462 48.5184C252.516 48.5184 253.332 48.0934 253.91 47.2434C254.488 46.382 254.777 44.9654 254.777 42.9934C254.777 41.0214 254.488 39.6104 253.91 38.7604C253.332 37.899 252.516 37.4684 251.462 37.4684H250.952V48.5184H251.462ZM257.574 48.6884L258.934 48.1784L263.609 36.8734H264.119L268.964 48.4334L269.814 48.6884V48.9434H267.774C267.185 48.9434 266.703 48.813 266.329 48.5524C265.955 48.2804 265.678 47.929 265.496 47.4984L264.629 45.4584H260.566L259.444 48.1784L260.719 48.6884V48.9434H257.574V48.6884ZM260.736 45.0334H264.459L262.589 40.5624L260.736 45.0334ZM271.589 48.6884L272.609 48.4334V44.5234L269.124 37.5534L268.274 37.2984V37.0434H270.399C270.988 37.0434 271.458 37.168 271.81 37.4174C272.172 37.6667 272.467 38.0237 272.694 38.4884L275.21 43.5034L277.794 37.8084L276.519 37.2984V37.0434H279.749V37.2984L278.389 37.8084L275.414 44.3534V48.4334L276.434 48.6884V48.9434H271.589V48.6884ZM284.08 49.1984C283.275 49.1984 282.521 49.017 281.819 48.6544C281.501 48.4957 281.235 48.3087 281.02 48.0934C280.861 48.354 280.663 48.5864 280.425 48.7904C280.221 48.9377 280.107 49.017 280.085 49.0284H279.66V45.7984H280.34C280.51 46.3537 280.748 46.8524 281.054 47.2944C281.745 48.2804 282.64 48.7734 283.74 48.7734C284.386 48.7734 284.901 48.5807 285.287 48.1954C285.672 47.81 285.865 47.2944 285.865 46.6484C285.865 46.2744 285.751 45.94 285.525 45.6454C285.309 45.3507 285.037 45.09 284.709 44.8634C284.38 44.6367 283.921 44.3534 283.332 44.0134C282.584 43.594 281.977 43.2144 281.513 42.8744C281.048 42.5344 280.651 42.1094 280.323 41.5994C279.994 41.078 279.83 40.466 279.83 39.7634C279.83 39.208 279.983 38.7094 280.289 38.2674C280.606 37.814 281.076 37.457 281.7 37.1964C282.323 36.9244 283.088 36.7884 283.995 36.7884C284.652 36.7884 285.309 36.9754 285.967 37.3494C286.216 37.4854 286.465 37.6667 286.715 37.8934C286.907 37.5987 287.106 37.3664 287.31 37.1964C287.514 37.049 287.627 36.9697 287.65 36.9584H288.075V40.1884H287.395C287.247 39.6444 287.026 39.1514 286.732 38.7094C286.46 38.2787 286.12 37.9217 285.712 37.6384C285.315 37.355 284.856 37.2134 284.335 37.2134C283.893 37.2134 283.513 37.389 283.196 37.7404C282.878 38.0917 282.72 38.5394 282.72 39.0834C282.72 39.5027 282.839 39.8824 283.077 40.2224C283.326 40.551 283.626 40.84 283.978 41.0894C284.34 41.3387 284.828 41.639 285.44 41.9904C286.154 42.3984 286.732 42.761 287.174 43.0784C287.616 43.3957 287.99 43.7924 288.296 44.2684C288.602 44.733 288.755 45.2714 288.755 45.8834C288.755 46.4954 288.579 47.0564 288.228 47.5664C287.876 48.065 287.349 48.4617 286.647 48.7564C285.944 49.051 285.088 49.1984 284.08 49.1984Z" fill="white"/>
<path d="M150.09 69.9075L150.09 15.8726" stroke="white" stroke-width="0.75"/>
<path d="M191.597 29.0712C191.334 27.8185 190.193 26.8726 188.829 26.8726C188.517 26.8726 188.264 27.1183 188.264 27.4222C188.264 27.7262 188.517 27.9719 188.829 27.9719C189.763 27.9719 190.524 28.7118 190.524 29.6209C190.524 30.5301 189.763 31.2699 188.829 31.2699C188.517 31.2699 188.264 31.5156 188.264 31.8196C188.264 32.1236 188.517 32.3693 188.829 32.3693C190.193 32.3693 191.334 31.4233 191.597 30.1706H198.998V35.1176H168.491V30.1706H176.4H178.095C178.407 30.1706 178.66 29.9249 178.66 29.6209C178.66 29.3169 178.407 29.0712 178.095 29.0712H177.069C177.303 28.4325 177.925 27.9719 178.66 27.9719C179.595 27.9719 180.355 28.7118 180.355 29.6209C180.355 30.5301 179.595 31.2699 178.66 31.2699C178.348 31.2699 178.095 31.5156 178.095 31.8196C178.095 32.1236 178.348 32.3693 178.66 32.3693C180.218 32.3693 181.485 31.1364 181.485 29.6209C181.485 28.1055 180.218 26.8726 178.66 26.8726C177.296 26.8726 176.155 27.8185 175.892 29.0712H167.361V36.217V58.2039H200.128V36.217V29.0712H191.597ZM198.998 57.1045H168.491V36.217H198.998V57.1045Z" fill="white"/>
<path d="M182.05 27.9719C182.984 27.9719 183.745 28.7118 183.745 29.6209C183.745 30.5301 182.984 31.2699 182.05 31.2699C181.738 31.2699 181.485 31.5156 181.485 31.8196C181.485 32.1236 181.738 32.3693 182.05 32.3693C183.607 32.3693 184.874 31.1364 184.874 29.6209C184.874 28.1055 183.607 26.8726 182.05 26.8726C181.738 26.8726 181.485 27.1183 181.485 27.4222C181.485 27.7262 181.738 27.9719 182.05 27.9719Z" fill="white"/>
<path d="M185.439 27.9719C186.374 27.9719 187.134 28.7118 187.134 29.6209C187.134 30.5301 186.374 31.2699 185.439 31.2699C185.128 31.2699 184.874 31.5156 184.874 31.8196C184.874 32.1236 185.128 32.3693 185.439 32.3693C186.997 32.3693 188.264 31.1364 188.264 29.6209C188.264 28.1055 186.997 26.8726 185.439 26.8726C185.128 26.8726 184.874 27.1183 184.874 27.4222C184.874 27.7262 185.128 27.9719 185.439 27.9719Z" fill="white"/>
<path d="M172.446 40.6141H184.874C185.186 40.6141 185.439 40.3684 185.439 40.0645C185.439 39.7605 185.186 39.5148 184.874 39.5148H172.446C172.134 39.5148 171.881 39.7605 171.881 40.0645C171.881 40.3684 172.134 40.6141 172.446 40.6141Z" fill="white"/>
<path d="M195.043 48.3098H186.569C186.257 48.3098 186.004 48.5555 186.004 48.8595C186.004 49.1634 186.257 49.4091 186.569 49.4091H195.043C195.355 49.4091 195.608 49.1634 195.608 48.8595C195.608 48.5555 195.355 48.3098 195.043 48.3098Z" fill="white"/>
<path d="M172.446 45.0121H178.095C178.407 45.0121 178.66 44.7664 178.66 44.4624C178.66 44.1584 178.407 43.9127 178.095 43.9127H172.446C172.134 43.9127 171.881 44.1584 171.881 44.4624C171.881 44.7664 172.134 45.0121 172.446 45.0121Z" fill="white"/>
<path d="M195.043 52.7073H189.394C189.082 52.7073 188.829 52.953 188.829 53.257C188.829 53.5609 189.082 53.8066 189.394 53.8066H195.043C195.355 53.8066 195.608 53.5609 195.608 53.257C195.608 52.953 195.355 52.7073 195.043 52.7073Z" fill="white"/>
<path d="M183.18 44.4624C183.18 44.7664 183.433 45.0121 183.745 45.0121H192.219C192.531 45.0121 192.784 44.7664 192.784 44.4624C192.784 44.1584 192.531 43.9127 192.219 43.9127H183.745C183.433 43.9127 183.18 44.1584 183.18 44.4624Z" fill="white"/>
<path d="M181.321 44.8525C181.423 44.748 181.485 44.6051 181.485 44.4622C181.485 44.3187 181.423 44.1758 181.321 44.0719C181.112 43.8686 180.728 43.8686 180.519 44.0719C180.417 44.1758 180.355 44.3187 180.355 44.4622C180.355 44.6051 180.417 44.748 180.519 44.8525C180.626 44.9564 180.773 45.0119 180.92 45.0119C181.067 45.0119 181.214 44.9564 181.321 44.8525Z" fill="white"/>
<path d="M174.706 48.8595C174.706 49.1634 174.959 49.4091 175.27 49.4091H183.745C184.056 49.4091 184.31 49.1634 184.31 48.8595C184.31 48.5555 184.056 48.3098 183.745 48.3098H175.27C174.959 48.3098 174.706 48.5555 174.706 48.8595Z" fill="white"/>
<path d="M172.446 49.4091C172.593 49.4091 172.74 49.3487 172.847 49.2497C172.949 49.1453 173.011 49.0024 173.011 48.8594C173.011 48.716 172.949 48.5731 172.847 48.4747C172.638 48.2658 172.254 48.2658 172.045 48.4692C171.943 48.5731 171.881 48.716 171.881 48.8594C171.881 49.0024 171.943 49.1453 172.045 49.2497C172.152 49.3487 172.293 49.4091 172.446 49.4091Z" fill="white"/>
<path d="M195.043 45.0119C195.19 45.0119 195.337 44.9564 195.444 44.8525C195.552 44.748 195.608 44.6051 195.608 44.4622C195.608 44.3187 195.552 44.1758 195.444 44.0719C195.23 43.8686 194.851 43.8686 194.642 44.0719C194.541 44.1758 194.478 44.3187 194.478 44.4622C194.478 44.6051 194.541 44.748 194.642 44.8525C194.75 44.9564 194.896 45.0119 195.043 45.0119Z" fill="white"/>
<path d="M186.569 52.7073H172.446C172.134 52.7073 171.881 52.953 171.881 53.257C171.881 53.5609 172.134 53.8066 172.446 53.8066H186.569C186.881 53.8066 187.134 53.5609 187.134 53.257C187.134 52.953 186.881 52.7073 186.569 52.7073Z" fill="white"/>
<defs>
<filter id="filter0_d" x="-6.10352e-05" y="0.872559" width="333.753" height="94" filterUnits="userSpaceOnUse" color-interpolation-filters="sRGB">
<feFlood flood-opacity="0" result="BackgroundImageFix"/>
<feColorMatrix in="SourceAlpha" type="matrix" values="0 0 0 0 0 0 0 0 0 0 0 0 0 0 0 0 0 0 127 0"/>
<feOffset dx="5" dy="5"/>
<feGaussianBlur stdDeviation="10"/>
<feColorMatrix type="matrix" values="0 0 0 0 0.890196 0 0 0 0 0.721569 0 0 0 0 0.45098 0 0 0 0.5 0"/>
<feBlend mode="normal" in2="BackgroundImageFix" result="effect1_dropShadow"/>
<feBlend mode="normal" in="SourceGraphic" in2="effect1_dropShadow" result="shape"/>
</filter>
</defs>
</svg>
