<svg width="334" height="95" viewBox="0 0 334 95" fill="none" xmlns="http://www.w3.org/2000/svg">
<g filter="url(#filter0_d)">
<rect x="15" y="15.8726" width="293.753" height="54" fill="#E3B873"/>
</g>
<path d="M84.3523 49.1984C83.5703 49.1984 82.9016 49.0907 82.3463 48.8754C81.8023 48.66 81.3886 48.3824 81.1053 48.0424C80.8333 47.7024 80.6973 47.351 80.6973 46.9884C80.6973 46.603 80.8106 46.297 81.0373 46.0704C81.2753 45.8324 81.587 45.7134 81.9723 45.7134C82.063 45.7134 82.1536 45.7247 82.2443 45.7474C82.335 45.7587 82.3973 45.7644 82.4313 45.7644L82.6523 45.7984V48.5184C82.6636 48.5184 82.7826 48.5637 83.0093 48.6544C83.304 48.7337 83.6383 48.7734 84.0123 48.7734C84.6923 48.7734 85.2306 48.4957 85.6273 47.9404C86.024 47.3737 86.2223 46.4897 86.2223 45.2884C86.2223 44.0984 86.0183 43.237 85.6103 42.7044C85.2023 42.1604 84.613 41.8884 83.8423 41.8884C83.5476 41.8884 83.27 41.9394 83.0093 42.0414C82.7486 42.1434 82.471 42.2794 82.1763 42.4494C81.9383 42.5967 81.7003 42.778 81.4623 42.9934L81.1223 42.7384L81.8023 37.0434H86.8173C86.8966 36.4314 87.0893 35.9214 87.3953 35.5134C87.52 35.3207 87.6673 35.1507 87.8373 35.0034H88.3473V38.3184H82.1763L81.7173 42.2284C81.876 42.115 82.1083 41.9904 82.4143 41.8544C83.049 41.5937 83.6383 41.4634 84.1823 41.4634C85.837 41.4634 87.0723 41.8034 87.8883 42.4834C88.7043 43.152 89.1123 44.087 89.1123 45.2884C89.1123 46.5124 88.71 47.47 87.9053 48.1614C87.1006 48.8527 85.9163 49.1984 84.3523 49.1984ZM95.2376 49.1984C93.8096 49.1984 92.6876 48.6884 91.8716 47.6684C91.0556 46.6484 90.6476 45.09 90.6476 42.9934C90.6476 40.9534 91.0896 39.412 91.9736 38.3694C92.8689 37.3154 94.0986 36.7884 95.6626 36.7884C96.3313 36.7884 96.9149 36.9017 97.4136 37.1284C97.9236 37.3437 98.3089 37.6214 98.5696 37.9614C98.8416 38.3014 98.9776 38.647 98.9776 38.9984C98.9776 39.3837 98.8586 39.6954 98.6206 39.9334C98.3939 40.16 98.0879 40.2734 97.7026 40.2734C97.5439 40.2734 97.3853 40.262 97.2266 40.2394L97.0226 40.1884V37.4684L96.6996 37.3494C96.4503 37.2587 96.2179 37.2134 96.0026 37.2134C95.4473 37.2134 94.9883 37.3607 94.6256 37.6554C94.2743 37.95 94.0023 38.494 93.8096 39.2874C93.6283 40.0807 93.5376 41.2027 93.5376 42.6534C93.6623 42.4607 93.8153 42.2907 93.9966 42.1434C94.4273 41.8034 94.9259 41.6334 95.4926 41.6334C96.3199 41.6334 97.0396 41.792 97.6516 42.1094C98.2749 42.4154 98.7509 42.846 99.0796 43.4014C99.4083 43.9567 99.5726 44.5857 99.5726 45.2884C99.5726 46.501 99.1929 47.4587 98.4336 48.1614C97.6856 48.8527 96.6203 49.1984 95.2376 49.1984ZM95.2376 48.8584C95.4643 48.8584 95.6853 48.745 95.9006 48.5184C96.1273 48.2917 96.3143 47.9234 96.4616 47.4134C96.6089 46.9034 96.6826 46.2517 96.6826 45.4584C96.6826 44.665 96.6033 44.0134 96.4446 43.5034C96.2973 42.9934 96.1046 42.625 95.8666 42.3984C95.6399 42.1717 95.4019 42.0584 95.1526 42.0584C94.6879 42.0584 94.3139 42.285 94.0306 42.7384C93.7586 43.1917 93.6226 43.9 93.6226 44.8634C93.6226 46.3027 93.7756 47.3284 94.0816 47.9404C94.3989 48.5524 94.7843 48.8584 95.2376 48.8584ZM107.484 39.1684V48.1784L108.844 48.6884V48.9434H105.614V48.6884L106.974 48.1784V37.5534L105.784 37.2984V37.0434H108.079C108.669 37.0434 109.133 37.168 109.473 37.4174C109.825 37.6554 110.125 38.0124 110.374 38.4884L114.08 45.5774L116.919 38.4884C117.112 37.9897 117.373 37.627 117.701 37.4004C118.03 37.1624 118.534 37.0434 119.214 37.0434H120.999V37.2984L119.979 37.5534V48.4334L120.999 48.6884V48.9434H116.154V48.6884L117.174 48.4334V39.1684L113.179 49.1134H112.669L107.484 39.1684ZM122.365 48.1784C122.365 47.5097 122.496 46.9034 122.756 46.3594C123.028 45.804 123.357 45.3224 123.742 44.9144C124.128 44.5064 124.632 44.0247 125.255 43.4694C125.833 42.9594 126.287 42.5344 126.615 42.1944C126.944 41.843 127.222 41.452 127.448 41.0214C127.675 40.5794 127.788 40.1034 127.788 39.5934C127.788 38.8454 127.607 38.2617 127.244 37.8424C126.882 37.423 126.411 37.2134 125.833 37.2134C125.505 37.2134 125.17 37.2587 124.83 37.3494L124.473 37.4684V40.1884L124.252 40.2394C124.071 40.262 123.918 40.2734 123.793 40.2734C123.408 40.2734 123.096 40.16 122.858 39.9334C122.632 39.6954 122.518 39.3837 122.518 38.9984C122.518 38.6357 122.654 38.2844 122.926 37.9444C123.21 37.6044 123.623 37.3267 124.167 37.1114C124.723 36.896 125.391 36.7884 126.173 36.7884C127.703 36.7884 128.837 37.0944 129.573 37.7064C130.31 38.3184 130.678 39.174 130.678 40.2734C130.678 40.9647 130.497 41.5597 130.134 42.0584C129.783 42.557 129.347 42.9707 128.825 43.2994C128.315 43.628 127.63 44.002 126.768 44.4214C126.043 44.7727 125.454 45.0844 125 45.3564C124.558 45.617 124.145 45.9344 123.759 46.3084C123.385 46.6824 123.119 47.1074 122.96 47.5834H129.25C129.33 46.9714 129.522 46.4614 129.828 46.0534C129.953 45.8607 130.1 45.6907 130.27 45.5434H130.78V48.9434H122.365V48.1784Z" fill="white"/>
<path fill-rule="evenodd" clip-rule="evenodd" d="M35.2502 27.2544C35.2502 27.0435 35.4284 26.8726 35.6483 26.8726H64.3116C64.5315 26.8726 64.7097 27.0435 64.7097 27.2544V54.8768C64.7097 55.0877 64.5315 55.2586 64.3116 55.2586C64.0918 55.2586 63.9135 55.0877 63.9135 54.8768V27.6363H35.6483C35.4284 27.6363 35.2502 27.4653 35.2502 27.2544Z" fill="white" stroke="white" stroke-width="0.5" stroke-linecap="round" stroke-linejoin="round"/>
<path d="M35.668 55.4345L35.793 55.4345L35.793 55.3095L35.793 31.5506L37.4189 33.1765C37.6219 33.3796 37.9511 33.3796 38.1542 33.1765C38.3573 32.9735 38.3573 32.6442 38.1542 32.4412L35.6407 29.9277C35.4376 29.7246 35.1084 29.7246 34.9053 29.9277L32.3918 32.4412C32.1888 32.6442 32.1888 32.9735 32.3918 33.1765C32.5949 33.3796 32.9241 33.3796 33.1272 33.1765L34.7531 31.5506L34.7531 55.3095L34.7531 55.4345L34.8781 55.4345L35.668 55.4345Z" fill="white" stroke="white" stroke-width="0.25"/>
<path d="M34.7521 55.7046V55.8296H34.8771L58.7604 55.8296L57.1263 57.4553C56.9221 57.6584 56.9221 57.988 57.1263 58.1911C57.3301 58.3938 57.6602 58.3938 57.8641 58.1911L60.3907 55.6776C60.5949 55.4745 60.5949 55.1449 60.3907 54.9418L57.8641 52.4282C57.6602 52.2255 57.3301 52.2255 57.1263 52.4282C56.9221 52.6314 56.9221 52.9609 57.1263 53.164L58.7604 54.7897L34.8771 54.7897H34.7521V54.9147V55.7046Z" fill="white" stroke="white" stroke-width="0.25"/>
<path fill-rule="evenodd" clip-rule="evenodd" d="M46.1625 26.9882C46.3167 27.1425 46.3167 27.3926 46.1625 27.5468L41.423 32.2863C41.2687 32.4406 41.0186 32.4406 40.8644 32.2863C40.7102 32.1321 40.7102 31.882 40.8644 31.7278L45.6039 26.9882C45.7582 26.834 46.0083 26.834 46.1625 26.9882Z" fill="white" stroke="white" stroke-width="0.5" stroke-linecap="round" stroke-linejoin="round"/>
<path fill-rule="evenodd" clip-rule="evenodd" d="M64.4624 45.8148C64.6167 45.9691 64.6167 46.2191 64.4624 46.3734L60.1178 50.718C59.9636 50.8722 59.7135 50.8722 59.5593 50.718C59.405 50.5637 59.405 50.3136 59.5593 50.1594L63.9039 45.8148C64.0581 45.6606 64.3082 45.6606 64.4624 45.8148Z" fill="white" stroke="white" stroke-width="0.5" stroke-linecap="round" stroke-linejoin="round"/>
<path fill-rule="evenodd" clip-rule="evenodd" d="M52.0851 26.9865C52.2403 27.1397 52.2419 27.3898 52.0886 27.545L41.8196 37.9457C41.6664 38.1009 41.4163 38.1025 41.2611 37.9492C41.1059 37.796 41.1043 37.5459 41.2575 37.3907L51.5265 26.99C51.6798 26.8348 51.9298 26.8332 52.0851 26.9865Z" fill="white" stroke="white" stroke-width="0.5" stroke-linecap="round" stroke-linejoin="round"/>
<path fill-rule="evenodd" clip-rule="evenodd" d="M64.594 39.2315C64.7482 39.3857 64.7482 39.6358 64.594 39.79L54.5883 49.7957C54.434 49.95 54.184 49.95 54.0297 49.7957C53.8755 49.6415 53.8755 49.3914 54.0297 49.2372L64.0354 39.2315C64.1896 39.0772 64.4397 39.0772 64.594 39.2315Z" fill="white" stroke="white" stroke-width="0.5" stroke-linecap="round" stroke-linejoin="round"/>
<path fill-rule="evenodd" clip-rule="evenodd" d="M58.4085 27.1217C58.5615 27.2772 58.5595 27.5273 58.404 27.6803L41.9473 43.8737C41.7918 44.0267 41.5418 44.0246 41.3888 43.8692C41.2358 43.7137 41.2378 43.4636 41.3933 43.3106L57.85 27.1172C58.0055 26.9642 58.2555 26.9662 58.4085 27.1217Z" fill="white" stroke="white" stroke-width="0.5" stroke-linecap="round" stroke-linejoin="round"/>
<path fill-rule="evenodd" clip-rule="evenodd" d="M64.5941 33.044C64.7483 33.1983 64.7483 33.4483 64.5941 33.6026L48.0057 50.191C47.8515 50.3452 47.6014 50.3452 47.4472 50.191C47.2929 50.0367 47.2929 49.7866 47.4472 49.6324L64.0355 33.044C64.1898 32.8898 64.4399 32.8898 64.5941 33.044Z" fill="white" stroke="white" stroke-width="0.5" stroke-linecap="round" stroke-linejoin="round"/>
<path fill-rule="evenodd" clip-rule="evenodd" d="M64.3308 27.1195C64.485 27.2737 64.485 27.5238 64.3308 27.678L41.6863 50.3225C41.5321 50.4767 41.282 50.4767 41.1278 50.3225C40.9735 50.1682 40.9735 49.9181 41.1278 49.7639L63.7722 27.1195C63.9265 26.9652 64.1765 26.9652 64.3308 27.1195Z" fill="white" stroke="white" stroke-width="0.5" stroke-linecap="round" stroke-linejoin="round"/>
<path d="M220.166 49.2672C218.738 49.2672 217.655 48.9839 216.919 48.4172C216.193 47.8505 215.831 47.1139 215.831 46.2072C215.831 45.5839 216.103 44.9832 216.647 44.4052C217.191 43.8159 217.854 43.3965 218.636 43.1472C217.888 42.7279 217.315 42.2689 216.919 41.7702C216.533 41.2602 216.341 40.6425 216.341 39.9172C216.341 39.0105 216.703 38.2739 217.429 37.7072C218.165 37.1405 219.248 36.8572 220.676 36.8572C221.39 36.8572 222.013 36.9875 222.546 37.2482C223.09 37.5089 223.509 37.8489 223.804 38.2682C224.098 38.6875 224.246 39.1239 224.246 39.5772C224.246 40.1099 224.013 40.6255 223.549 41.1242C223.095 41.6229 222.563 41.9572 221.951 42.1272C222.982 42.5805 223.764 43.1189 224.297 43.7422C224.829 44.3655 225.096 45.1305 225.096 46.0372C225.096 46.6265 224.914 47.1649 224.552 47.6522C224.189 48.1395 223.639 48.5305 222.903 48.8252C222.166 49.1199 221.254 49.2672 220.166 49.2672ZM221.441 41.7872C221.871 41.5945 222.217 41.3169 222.478 40.9542C222.75 40.5915 222.886 40.1325 222.886 39.5772C222.886 39.1692 222.784 38.7895 222.58 38.4382C222.387 38.0869 222.132 37.8092 221.815 37.6052C221.509 37.3899 221.186 37.2822 220.846 37.2822C220.358 37.2822 219.95 37.4749 219.622 37.8602C219.304 38.2342 219.146 38.7499 219.146 39.4072C219.146 40.3139 219.911 41.1072 221.441 41.7872ZM219.996 48.8422C220.721 48.8422 221.282 48.6439 221.679 48.2472C222.087 47.8392 222.291 47.2725 222.291 46.5472C222.291 46.0032 222.019 45.4535 221.475 44.8982C220.931 44.3429 220.211 43.8725 219.316 43.4872C218.681 43.7139 218.182 44.0539 217.82 44.5072C217.457 44.9492 217.276 45.5159 217.276 46.2072C217.276 46.6832 217.395 47.1252 217.633 47.5332C217.882 47.9299 218.211 48.2472 218.619 48.4852C219.038 48.7232 219.497 48.8422 219.996 48.8422ZM230.717 49.2672C229.289 49.2672 228.167 48.7572 227.351 47.7372C226.535 46.7172 226.127 45.1589 226.127 43.0622C226.127 41.0222 226.569 39.4809 227.453 38.4382C228.349 37.3842 229.578 36.8572 231.142 36.8572C231.811 36.8572 232.395 36.9705 232.893 37.1972C233.403 37.4125 233.789 37.6902 234.049 38.0302C234.321 38.3702 234.457 38.7159 234.457 39.0672C234.457 39.4525 234.338 39.7642 234.1 40.0022C233.874 40.2289 233.568 40.3422 233.182 40.3422C233.024 40.3422 232.865 40.3309 232.706 40.3082L232.502 40.2572V37.5372L232.179 37.4182C231.93 37.3275 231.698 37.2822 231.482 37.2822C230.927 37.2822 230.468 37.4295 230.105 37.7242C229.754 38.0189 229.482 38.5629 229.289 39.3562C229.108 40.1495 229.017 41.2715 229.017 42.7222C229.142 42.5295 229.295 42.3595 229.476 42.2122C229.907 41.8722 230.406 41.7022 230.972 41.7022C231.8 41.7022 232.519 41.8609 233.131 42.1782C233.755 42.4842 234.231 42.9149 234.559 43.4702C234.888 44.0255 235.052 44.6545 235.052 45.3572C235.052 46.5699 234.673 47.5275 233.913 48.2302C233.165 48.9215 232.1 49.2672 230.717 49.2672ZM230.717 48.9272C230.944 48.9272 231.165 48.8139 231.38 48.5872C231.607 48.3605 231.794 47.9922 231.941 47.4822C232.089 46.9722 232.162 46.3205 232.162 45.5272C232.162 44.7339 232.083 44.0822 231.924 43.5722C231.777 43.0622 231.584 42.6939 231.346 42.4672C231.12 42.2405 230.882 42.1272 230.632 42.1272C230.168 42.1272 229.794 42.3539 229.51 42.8072C229.238 43.2605 229.102 43.9689 229.102 44.9322C229.102 46.3715 229.255 47.3972 229.561 48.0092C229.879 48.6212 230.264 48.9272 230.717 48.9272ZM241.434 48.7572L242.454 48.5022V37.6222L241.434 37.3672V37.1122H245.769C247.798 37.1122 249.35 37.6335 250.427 38.6762C251.515 39.7189 252.059 41.1809 252.059 43.0622C252.059 44.9435 251.515 46.4055 250.427 47.4482C249.35 48.4909 247.798 49.0122 245.769 49.0122H241.434V48.7572ZM245.769 48.5872C246.823 48.5872 247.639 48.1622 248.217 47.3122C248.795 46.4509 249.084 45.0342 249.084 43.0622C249.084 41.0902 248.795 39.6792 248.217 38.8292C247.639 37.9679 246.823 37.5372 245.769 37.5372H245.259V48.5872H245.769ZM251.882 48.7572L253.242 48.2472L257.917 36.9422H258.427L263.272 48.5022L264.122 48.7572V49.0122H262.082C261.492 49.0122 261.011 48.8819 260.637 48.6212C260.263 48.3492 259.985 47.9979 259.804 47.5672L258.937 45.5272H254.874L253.752 48.2472L255.027 48.7572V49.0122H251.882V48.7572ZM255.044 45.1022H258.767L256.897 40.6312L255.044 45.1022ZM265.896 48.7572L266.916 48.5022V44.5922L263.431 37.6222L262.581 37.3672V37.1122H264.706C265.296 37.1122 265.766 37.2369 266.117 37.4862C266.48 37.7355 266.775 38.0925 267.001 38.5572L269.517 43.5722L272.101 37.8772L270.826 37.3672V37.1122H274.056V37.3672L272.696 37.8772L269.721 44.4222V48.5022L270.741 48.7572V49.0122H265.896V48.7572ZM278.387 49.2672C277.583 49.2672 276.829 49.0859 276.126 48.7232C275.809 48.5645 275.543 48.3775 275.327 48.1622C275.169 48.4229 274.97 48.6552 274.732 48.8592C274.528 49.0065 274.415 49.0859 274.392 49.0972H273.967V45.8672H274.647C274.817 46.4225 275.055 46.9212 275.361 47.3632C276.053 48.3492 276.948 48.8422 278.047 48.8422C278.693 48.8422 279.209 48.6495 279.594 48.2642C279.98 47.8789 280.172 47.3632 280.172 46.7172C280.172 46.3432 280.059 46.0089 279.832 45.7142C279.617 45.4195 279.345 45.1589 279.016 44.9322C278.688 44.7055 278.229 44.4222 277.639 44.0822C276.891 43.6629 276.285 43.2832 275.82 42.9432C275.356 42.6032 274.959 42.1782 274.63 41.6682C274.302 41.1469 274.137 40.5349 274.137 39.8322C274.137 39.2769 274.29 38.7782 274.596 38.3362C274.914 37.8829 275.384 37.5259 276.007 37.2652C276.631 36.9932 277.396 36.8572 278.302 36.8572C278.96 36.8572 279.617 37.0442 280.274 37.4182C280.524 37.5542 280.773 37.7355 281.022 37.9622C281.215 37.6675 281.413 37.4352 281.617 37.2652C281.821 37.1179 281.935 37.0385 281.957 37.0272H282.382V40.2572H281.702C281.555 39.7132 281.334 39.2202 281.039 38.7782C280.767 38.3475 280.427 37.9905 280.019 37.7072C279.623 37.4239 279.164 37.2822 278.642 37.2822C278.2 37.2822 277.821 37.4579 277.503 37.8092C277.186 38.1605 277.027 38.6082 277.027 39.1522C277.027 39.5715 277.146 39.9512 277.384 40.2912C277.634 40.6199 277.934 40.9089 278.285 41.1582C278.648 41.4075 279.135 41.7079 279.747 42.0592C280.461 42.4672 281.039 42.8299 281.481 43.1472C281.923 43.4645 282.297 43.8612 282.603 44.3372C282.909 44.8019 283.062 45.3402 283.062 45.9522C283.062 46.5642 282.887 47.1252 282.535 47.6352C282.184 48.1339 281.657 48.5305 280.954 48.8252C280.252 49.1199 279.396 49.2672 278.387 49.2672Z" fill="white"/>
<path d="M150.09 69.9075L150.09 15.8726" stroke="white" stroke-width="0.75"/>
<path d="M191.6 29.0722C191.337 27.819 190.196 26.8726 188.831 26.8726C188.519 26.8726 188.266 27.1184 188.266 27.4225C188.266 27.7266 188.519 27.9724 188.831 27.9724C189.766 27.9724 190.527 28.7126 190.527 29.6221C190.527 30.5317 189.766 31.2719 188.831 31.2719C188.519 31.2719 188.266 31.5177 188.266 31.8218C188.266 32.1259 188.519 32.3717 188.831 32.3717C190.196 32.3717 191.337 31.4253 191.6 30.1721H199.005V35.1213H168.484V30.1721H176.397H178.093C178.405 30.1721 178.658 29.9262 178.658 29.6221C178.658 29.318 178.405 29.0722 178.093 29.0722H177.066C177.3 28.4332 177.922 27.9724 178.658 27.9724C179.593 27.9724 180.353 28.7126 180.353 29.6221C180.353 30.5317 179.593 31.2719 178.658 31.2719C178.346 31.2719 178.093 31.5177 178.093 31.8218C178.093 32.1259 178.346 32.3717 178.658 32.3717C180.216 32.3717 181.484 31.1383 181.484 29.6221C181.484 28.106 180.216 26.8726 178.658 26.8726C177.294 26.8726 176.152 27.819 175.889 29.0722H167.354V36.2211V58.2178H200.135V36.2211V29.0722H191.6ZM199.005 57.1179H168.484V36.2211H199.005V57.1179Z" fill="white"/>
<path d="M182.049 27.9724C182.984 27.9724 183.745 28.7126 183.745 29.6221C183.745 30.5317 182.984 31.2719 182.049 31.2719C181.737 31.2719 181.484 31.5177 181.484 31.8218C181.484 32.1259 181.737 32.3717 182.049 32.3717C183.607 32.3717 184.875 31.1383 184.875 29.6221C184.875 28.106 183.607 26.8726 182.049 26.8726C181.737 26.8726 181.484 27.1184 181.484 27.4225C181.484 27.7266 181.737 27.9724 182.049 27.9724Z" fill="white"/>
<path d="M185.44 27.9724C186.375 27.9724 187.136 28.7126 187.136 29.6221C187.136 30.5317 186.375 31.2719 185.44 31.2719C185.128 31.2719 184.875 31.5177 184.875 31.8218C184.875 32.1259 185.128 32.3717 185.44 32.3717C186.998 32.3717 188.266 31.1383 188.266 29.6221C188.266 28.106 186.998 26.8726 185.44 26.8726C185.128 26.8726 184.875 27.1184 184.875 27.4225C184.875 27.7266 185.128 27.9724 185.44 27.9724Z" fill="white"/>
<path d="M172.441 40.6201H184.875C185.187 40.6201 185.44 40.3742 185.44 40.0701C185.44 39.766 185.187 39.5202 184.875 39.5202H172.441C172.129 39.5202 171.876 39.766 171.876 40.0701C171.876 40.3742 172.129 40.6201 172.441 40.6201Z" fill="white"/>
<path d="M195.048 48.3192H186.571C186.259 48.3192 186.005 48.565 186.005 48.8691C186.005 49.1732 186.259 49.419 186.571 49.419H195.048C195.36 49.419 195.614 49.1732 195.614 48.8691C195.614 48.565 195.36 48.3192 195.048 48.3192Z" fill="white"/>
<path d="M172.441 45.0202H178.093C178.405 45.0202 178.658 44.7744 178.658 44.4703C178.658 44.1662 178.405 43.9204 178.093 43.9204H172.441C172.129 43.9204 171.876 44.1662 171.876 44.4703C171.876 44.7744 172.129 45.0202 172.441 45.0202Z" fill="white"/>
<path d="M195.048 52.7189H189.397C189.085 52.7189 188.831 52.9647 188.831 53.2688C188.831 53.5729 189.085 53.8188 189.397 53.8188H195.048C195.36 53.8188 195.614 53.5729 195.614 53.2688C195.614 52.9647 195.36 52.7189 195.048 52.7189Z" fill="white"/>
<path d="M183.179 44.4703C183.179 44.7744 183.433 45.0202 183.745 45.0202H192.223C192.534 45.0202 192.788 44.7744 192.788 44.4703C192.788 44.1662 192.534 43.9204 192.223 43.9204H183.745C183.433 43.9204 183.179 44.1662 183.179 44.4703Z" fill="white"/>
<path d="M181.32 44.8605C181.422 44.7561 181.484 44.6131 181.484 44.4701C181.484 44.3266 181.422 44.1836 181.32 44.0797C181.111 43.8762 180.727 43.8762 180.517 44.0797C180.416 44.1836 180.353 44.3266 180.353 44.4701C180.353 44.6131 180.416 44.7561 180.517 44.8605C180.625 44.9645 180.772 45.02 180.919 45.02C181.066 45.02 181.213 44.9645 181.32 44.8605Z" fill="white"/>
<path d="M174.702 48.8691C174.702 49.1732 174.955 49.419 175.267 49.419H183.745C184.057 49.419 184.31 49.1732 184.31 48.8691C184.31 48.565 184.057 48.3192 183.745 48.3192H175.267C174.955 48.3192 174.702 48.565 174.702 48.8691Z" fill="white"/>
<path d="M172.441 49.4191C172.588 49.4191 172.735 49.3586 172.842 49.2596C172.944 49.1551 173.006 49.0121 173.006 48.8691C173.006 48.7256 172.944 48.5826 172.842 48.4842C172.633 48.2752 172.249 48.2752 172.04 48.4787C171.938 48.5826 171.876 48.7256 171.876 48.8691C171.876 49.0121 171.938 49.1551 172.04 49.2596C172.147 49.3586 172.288 49.4191 172.441 49.4191Z" fill="white"/>
<path d="M195.048 45.02C195.195 45.02 195.342 44.9645 195.45 44.8605C195.557 44.7561 195.614 44.6131 195.614 44.4701C195.614 44.3266 195.557 44.1836 195.45 44.0797C195.235 43.8762 194.856 43.8762 194.647 44.0797C194.545 44.1836 194.483 44.3266 194.483 44.4701C194.483 44.6131 194.545 44.7561 194.647 44.8605C194.755 44.9645 194.902 45.02 195.048 45.02Z" fill="white"/>
<path d="M186.571 52.7189H172.441C172.129 52.7189 171.876 52.9647 171.876 53.2688C171.876 53.5729 172.129 53.8188 172.441 53.8188H186.571C186.883 53.8188 187.136 53.5729 187.136 53.2688C187.136 52.9647 186.883 52.7189 186.571 52.7189Z" fill="white"/>
<defs>
<filter id="filter0_d" x="0" y="0.872559" width="333.753" height="94" filterUnits="userSpaceOnUse" color-interpolation-filters="sRGB">
<feFlood flood-opacity="0" result="BackgroundImageFix"/>
<feColorMatrix in="SourceAlpha" type="matrix" values="0 0 0 0 0 0 0 0 0 0 0 0 0 0 0 0 0 0 127 0"/>
<feOffset dx="5" dy="5"/>
<feGaussianBlur stdDeviation="10"/>
<feColorMatrix type="matrix" values="0 0 0 0 0.890196 0 0 0 0 0.721569 0 0 0 0 0.45098 0 0 0 0.5 0"/>
<feBlend mode="normal" in2="BackgroundImageFix" result="effect1_dropShadow"/>
<feBlend mode="normal" in="SourceGraphic" in2="effect1_dropShadow" result="shape"/>
</filter>
</defs>
</svg>
